<?xml version="1.0" encoding="UTF-8"?>
<svg xmlns="http://www.w3.org/2000/svg" width="1200" height="420" viewBox="0 0 1200 420">
  <defs>
    <linearGradient id="navy" x1="0" y1="0" x2="1" y2="1">
      <stop offset="0%" stop-color="#1f3a6d"/>
      <stop offset="100%" stop-color="#0f2348"/>
    </linearGradient>
    <linearGradient id="cyan" x1="0" y1="0" x2="1" y2="1">
      <stop offset="0%" stop-color="#41e7ff"/>
      <stop offset="100%" stop-color="#1dc7d8"/>
    </linearGradient>
  </defs>

  <rect width="100%" height="100%" fill="white"/>

  <!-- D -->
  <path d="M90 35 H240
           C345 35 410 105 410 210
           C410 315 345 385 240 385
           H90 Z"
        fill="url(#navy)"/>

  <path d="M205 105
           C295 105 345 155 345 210
           C345 265 295 315 205 315
           L205 105 Z"
        fill="white"/>

  <!-- Human silhouette -->
  <path d="M185 120
           C170 122 158 132 154 146
           C150 160 152 178 164 190
           C153 197 148 205 149 215
           C150 230 165 240 178 244
           C169 252 164 262 164 278
           L164 385
           L222 385
           C224 347 238 315 270 288
           C290 270 300 245 298 214
           C295 170 265 135 220 123
           C207 119 196 118 185 120 Z"
        fill="url(#navy)"/>

  <!-- Pixel dots -->
  <g fill="url(#cyan)">
<rect x="40" y="150" width="12" height="12" rx="3.0"/>
<rect x="66" y="150" width="16" height="16" rx="4.0"/>
<rect x="92" y="150" width="20" height="20" rx="5.0"/>
<rect x="118" y="150" width="16" height="16" rx="4.0"/>
<rect x="144" y="150" width="12" height="12" rx="3.0"/>
<rect x="40" y="180" width="12" height="12" rx="3.0"/>
<rect x="66" y="180" width="16" height="16" rx="4.0"/>
<rect x="92" y="180" width="20" height="20" rx="5.0"/>
<rect x="118" y="180" width="16" height="16" rx="4.0"/>
<rect x="144" y="180" width="12" height="12" rx="3.0"/>
<rect x="40" y="210" width="12" height="12" rx="3.0"/>
<rect x="66" y="210" width="16" height="16" rx="4.0"/>
<rect x="92" y="210" width="20" height="20" rx="5.0"/>
<rect x="118" y="210" width="16" height="16" rx="4.0"/>
<rect x="144" y="210" width="12" height="12" rx="3.0"/>
<rect x="40" y="240" width="12" height="12" rx="3.0"/>
<rect x="66" y="240" width="16" height="16" rx="4.0"/>
<rect x="92" y="240" width="20" height="20" rx="5.0"/>
<rect x="118" y="240" width="16" height="16" rx="4.0"/>
<rect x="144" y="240" width="12" height="12" rx="3.0"/>
<rect x="40" y="270" width="12" height="12" rx="3.0"/>
<rect x="66" y="270" width="16" height="16" rx="4.0"/>
<rect x="92" y="270" width="20" height="20" rx="5.0"/>
<rect x="118" y="270" width="16" height="16" rx="4.0"/>
<rect x="144" y="270" width="12" height="12" rx="3.0"/>
<rect x="40" y="300" width="12" height="12" rx="3.0"/>
<rect x="66" y="300" width="16" height="16" rx="4.0"/>
<rect x="92" y="300" width="20" height="20" rx="5.0"/>
<rect x="118" y="300" width="16" height="16" rx="4.0"/>
<rect x="144" y="300" width="12" height="12" rx="3.0"/>

  </g>

  <text x="470" y="200" font-family="Arial, Helvetica, sans-serif"
        font-size="64" font-weight="700" fill="#122b58">
    DeepAnnotate.ai
  </text>

  <text x="482" y="255" font-family="Arial, Helvetica, sans-serif"
        font-size="28" fill="#233f6d">
    Human Intelligence.Delivered at Scale
  </text>
</svg>
