<svg width="220" height="70" viewBox="0 0 220 70" fill="none" xmlns="http://www.w3.org/2000/svg">
  <!-- Left Side: Custom Letter D Icon containing head silhouette -->
  <g transform="translate(5, 5)">
    <!-- Base geometric Letter D outer path -->
    <path d="M10 0 H35 C52 0 60 8 60 25 C60 42 52 50 35 50 H10 V0 Z" fill="#0E1F3E" />
    
    <!-- Human brain / facial profile silhouette inside D (in white) -->
    <path d="M22 13 C22 13 28 12 30 18 C32 23 27 26 27 26 C28 27 29 28 30 30 C31 32 30 34 29 35 C28 36 26 36 25 36 C24 37 23 37 22 37" fill="#F1F5F9" />
    <path d="M10 0 V50 H18 V0 H10 Z" fill="#0E1F3E" />
    
    <!-- Scattered teal digital data dots on the left -->
    <circle cx="1" cy="25" r="1.5" fill="#0BA8D3" />
    <circle cx="5" cy="21" r="2.0" fill="#0BA8D3" />
    <circle cx="5" cy="29" r="2.0" fill="#0BA8D3" />
    <circle cx="9" cy="17" r="2.2" fill="#0BA8D3" />
    <circle cx="9" cy="25" r="2.5" fill="#0BA8D3" />
    <circle cx="9" cy="33" r="2.2" fill="#0BA8D3" />
    <circle cx="13" cy="13" r="2.5" fill="#0BA8D3" />
    <circle cx="13" cy="21" r="2.8" fill="#0BA8D3" />
    <circle cx="13" cy="29" r="2.8" fill="#0BA8D3" />
    <circle cx="13" cy="37" r="2.5" fill="#0BA8D3" />
  </g>
  
  <!-- Right Side: DeepAnnotate.ai typography -->
  <text x="76" y="34" font-family="'Inter', sans-serif" font-weight="800" font-size="19" fill="#F1F5F9" letter-spacing="-0.03em">DeepAnnotate<tspan fill="#0BA8D3">.ai</tspan></text>
  <text x="76" y="48" font-family="'Inter', sans-serif" font-weight="500" font-size="8.5" fill="#94A3B8" letter-spacing="0.04em">HUMAN INTELLIGENCE. DELIVERED AT SCALE</text>
</svg>
