<svg xmlns="http://www.w3.org/2000/svg" viewBox="0 0 1200 600" width="100%" height="100%" preserveAspectRatio="xMidYMid meet">
    <path fill="#E8ECF2" d="M401.4,766.1L400.4,776.1L399.5,785.5L392.5,782.6L385.0,783.8L380.9,776.9L380.9,776.1L379.0,770.3L386.5,771.0L393.7,773.0L396.2,764.9L398.0,758.3L401.4,766.1Z M69.3,755.9L62.9,758.4L58.5,752.0L56.6,745.7L56.4,744.7L54.3,740.0L54.3,740.0L56.3,733.9L62.5,736.4L65.8,741.7L68.4,747.8L69.3,755.9Z M449.5,731.0L453.6,738.1L455.0,748.5L455.4,756.2L455.6,765.8L450.4,771.9L445.0,777.0L438.7,781.9L431.7,786.0L423.8,784.8L419.5,777.8L420.0,769.6L427.2,764.3L430.0,758.0L432.1,750.2L433.6,743.7L435.6,737.7L437.8,731.0L437.8,731.0L439.5,731.0L444.5,727.6L449.5,731.0Z M196.0,668.8L200.3,670.7L204.3,668.6L202.4,672.8L199.2,675.8L194.6,674.9L191.3,670.7L191.3,670.7L192.0,666.8L196.0,668.8Z M181.5,668.6L186.6,673.2L184.6,672.8L180.3,671.6L175.7,668.4L175.7,668.4L178.1,665.9L181.5,668.6Z M270.1,651.2L273.7,652.7L277.4,651.4L279.3,657.6L276.7,656.8L272.7,657.2L268.6,656.8L264.1,657.4L260.7,655.3L258.9,650.8L258.9,650.8L261.0,648.9L265.2,650.4L270.1,651.2Z M371.8,641.0L372.2,645.6L371.6,649.8L370.7,653.8L366.8,655.3L363.1,657.4L358.7,657.2L360.3,652.9L356.4,654.4L352.7,655.9L350.2,652.7L350.0,648.3L353.6,644.2L353.6,644.2L355.9,643.0L359.8,643.4L360.7,638.2L360.9,634.5L360.9,626.7L362.8,622.3L365.8,620.8L367.6,624.3L368.4,627.8L369.8,632.2L370.9,636.4L371.8,641.0Z M404.6,581.1L403.2,582.8L400.7,581.6L398.0,582.3L395.7,584.1L393.3,586.1L391.6,588.4L391.2,591.6L391.4,594.6L392.9,597.3L390.6,599.3L387.5,599.9L385.7,602.7L383.7,605.4L381.6,609.1L381.1,612.4L382.3,616.1L384.1,619.0L386.8,621.1L389.3,624.0L390.7,627.8L391.4,631.4L392.4,635.2L394.0,638.5L395.0,642.3L395.4,652.0L396.4,656.1L396.7,660.5L397.7,664.9L397.2,671.1L395.4,676.1L393.5,680.2L389.0,681.9L387.5,686.3L385.5,690.7L380.5,695.6L376.0,697.7L371.8,700.7L367.3,703.7L364.7,709.5L359.3,710.1L353.4,709.5L348.1,710.6L342.5,710.6L343.6,716.4L348.7,719.1L352.4,723.3L354.5,728.8L350.8,733.8L345.0,732.2L340.2,736.4L340.1,743.3L339.9,750.2L343.8,756.2L344.6,763.1L348.8,770.3L355.9,773.4L361.9,779.0L366.6,785.6L372.7,792.4L381.0,795.9L389.1,802.2L394.8,809.1L401.0,817.3L404.3,829.5L405.9,839.7L410.0,830.0L415.5,822.3L421.3,814.4L428.2,808.2L434.1,801.7L442.4,801.2L450.6,804.4L457.3,810.1L459.5,799.9L464.1,793.3L472.5,792.8L479.1,788.1L485.4,783.5L492.3,780.6L499.7,777.0L504.8,771.9L502.5,765.0L501.0,758.4L501.0,751.6L494.6,752.3L487.7,755.1L481.2,755.1L480.3,748.5L480.7,735.8L482.2,732.2L487.0,728.5L492.6,724.8L496.7,720.2L500.7,715.8L503.7,710.1L508.3,707.5L512.8,705.6L515.1,704.5L520.2,703.9L525.1,702.0L529.3,699.3L533.3,696.1L537.0,693.0L541.6,688.9L544.5,684.6L547.7,680.9L548.6,676.1L545.1,673.2L546.3,668.3L548.5,664.7L552.0,662.5L555.6,659.8L559.0,656.3L561.6,652.0L563.3,647.0L565.7,644.2L569.7,644.8L571.3,648.3L575.3,648.7L575.4,644.8L577.1,640.7L580.7,641.7L581.5,645.6L585.5,646.2L589.8,644.4L594.0,643.1L597.8,643.8L599.2,648.1L602.9,644.6L606.3,642.7L610.1,641.3L613.8,639.9L617.2,637.6L620.9,636.0L623.8,633.9L625.8,630.4L628.3,632.9L631.8,631.6L634.2,636.2L636.1,639.7L639.8,637.8L641.3,633.9L644.7,631.2L649.1,631.7L650.4,635.4L653.2,631.7L656.8,630.6L660.7,630.2L664.2,630.4L667.9,631.6L671.5,632.1L673.1,635.4L675.2,638.4L678.9,636.6L682.8,636.2L686.6,636.2L690.3,636.0L693.6,634.6L697.2,633.5L700.1,630.8L703.2,629.1L706.6,628.1L709.2,625.5L711.0,620.4L712.9,617.3L716.4,618.8L717.7,622.0L720.5,624.2L724.0,623.5L726.4,626.8L728.8,629.3L732.2,627.0L733.4,622.9L736.4,621.3L739.9,618.2L743.1,617.0L747.0,615.2L749.7,613.3L752.4,611.2L755.0,609.3L758.1,610.3L761.1,607.3L763.3,604.9L766.4,605.1L769.2,603.1L769.8,600.1L772.6,597.8L775.4,596.2L778.7,594.9L781.8,594.3L784.7,594.7L787.9,595.5L790.5,597.8L790.9,601.4L793.8,604.2L795.8,606.6L799.8,607.6L802.0,610.0L804.8,612.4L808.0,612.9L810.6,611.2L813.5,607.6L816.6,609.5L819.9,610.5L823.0,611.5L826.3,612.2L829.6,612.2L832.4,621.7L832.2,624.0L831.9,628.3L828.7,630.8L826.0,634.4L826.5,638.4L830.2,638.2L829.8,642.1L828.1,646.0L826.5,650.4L829.0,653.7L832.9,654.8L836.7,652.9L838.6,648.7L839.7,644.8L841.5,641.5L843.6,638.5L844.5,635.0L846.2,630.2L848.3,629.3L852.1,628.9L855.4,627.8L858.8,626.3L860.4,622.6L861.4,619.1L863.7,615.7L867.0,613.5L869.8,611.7L871.6,608.8L873.5,607.3L875.9,605.9L879.3,606.7L882.3,605.9L885.5,604.9L889.2,605.4L891.6,603.1L893.3,597.5L894.5,599.8L896.1,603.7L898.9,605.4L902.1,606.1L905.3,605.1L908.7,605.7L911.8,605.9L913.9,605.1L916.7,605.6L919.3,607.4L922.3,606.2L925.9,606.2L928.9,605.1L932.4,606.2L934.6,603.4L936.3,600.6L938.6,598.3L942.8,592.2L944.9,593.3L947.5,595.5L949.7,598.5L953.9,603.6L957.2,603.7L960.3,603.7L963.9,602.7L967.5,601.6L970.2,599.3L972.5,596.8L976.2,596.5L978.7,594.7L981.3,596.3L983.0,598.9L985.3,601.6L989.0,601.2L991.3,603.4L995.3,605.6L999.4,606.4L1002.9,605.7L1005.5,603.1L1007.7,600.4L1010.7,599.8L1013.7,600.9L1017.2,601.7L1020.3,600.4L1023.3,600.4L1026.3,601.2L1029.3,602.1L1032.3,600.6L1035.9,599.3L1039.3,598.9L1043.1,598.9L1046.2,598.1L1049.2,597.5L1050.1,593.5L1050.2,590.2L1052.3,592.4L1052.9,596.0L1054.0,599.4L1055.4,602.2L1058.2,603.7L1062.0,603.2L1066.4,603.1L1069.4,602.6L1073.7,602.6L1076.9,602.4L1081.2,602.7L1085.0,603.4L1087.3,606.1L1086.7,609.3L1088.8,611.9L1092.4,614.0L1096.1,616.3L1100.4,617.9L1104.9,619.3L1108.3,620.8L1112.1,620.9L1114.3,617.9L1117.2,620.4L1119.8,623.3L1122.7,625.5L1126.8,626.5L1130.6,627.6L1132.2,631.4L1136.0,633.7L1138.6,637.2L1142.3,638.7L1146.1,638.5L1149.7,639.1L1153.7,638.9L1157.7,639.7L1161.4,641.1L1164.9,643.6L1168.3,645.6L1170.7,648.7L1170.3,652.9L1168.5,656.8L1167.0,661.8L1165.9,665.8L1164.3,670.6L1159.9,672.5L1158.0,676.8L1153.6,679.4L1152.1,684.3L1149.9,689.1L1147.4,693.2L1146.1,698.8L1145.2,703.9L1144.9,710.4L1145.0,715.8L1146.9,721.7L1147.6,727.5L1149.1,733.2L1155.3,735.4L1156.7,742.7L1150.6,745.4L1145.6,749.1L1139.2,749.8L1136.4,760.2L1135.8,769.2L1134.4,776.6L1132.6,784.3L1137.1,791.5L1138.8,800.8L1141.6,809.6L1145.7,817.8L1150.3,825.9L1155.3,834.3L1163.0,843.1L1164.7,857.7L1174.3,864.5L1174.9,867.0L1177.4,876.8L1186.6,868.3L1194.3,878.9L1200.0,887.4L1200.0,900.0L0.0,900.0L0.0,887.4L0.2,887.7L3.1,867.7L9.1,878.2L9.5,877.0L10.5,874.1L11.6,870.7L12.6,867.8L13.1,866.4L13.6,866.4L13.9,867.0L18.7,881.0L22.9,867.0L23.7,865.1L33.5,859.5L36.7,867.0L38.2,870.9L43.3,882.3L52.7,891.5L60.2,900.0L73.1,900.0L82.7,900.0L96.9,900.0L104.9,900.0L113.7,900.0L123.0,899.6L123.7,882.3L110.6,880.9L99.8,872.8L97.0,860.1L88.0,853.5L88.6,840.3L89.9,829.0L91.1,819.3L90.5,809.1L84.9,802.6L82.4,794.6L77.2,787.7L85.3,789.0L93.0,785.6L97.8,792.8L103.8,786.4L109.3,778.6L111.9,771.9L110.8,763.9L106.5,758.7L101.6,753.3L94.7,752.3L88.7,749.8L82.2,748.1L80.1,741.7L75.8,736.4L73.2,730.7L72.1,713.2L73.7,714.7L76.8,719.4L82.2,717.9L87.5,715.8L90.3,722.3L95.6,720.8L100.0,717.6L104.2,713.5L108.0,708.7L113.0,707.3L112.9,702.0L111.7,696.9L112.7,692.2L117.0,689.9L118.9,694.3L124.0,691.7L127.9,688.4L132.6,688.1L137.1,686.8L141.6,683.8L145.2,681.1L149.3,678.5L151.9,679.2L154.2,680.2L159.1,678.5L163.6,680.6L168.2,680.4L172.5,678.7L177.0,679.9L182.0,681.1L186.6,680.6L191.5,680.9L196.4,681.1L201.0,680.6L204.4,677.0L208.4,675.1L212.6,677.7L216.6,675.6L220.2,671.3L222.3,675.1L223.5,679.4L225.7,683.6L229.1,679.9L233.1,684.6L237.6,686.1L241.5,689.6L246.2,688.9L250.4,686.6L255.4,687.1L259.9,688.9L264.5,691.2L266.3,685.6L264.1,681.4L262.5,677.0L258.2,676.1L256.3,671.6L255.6,667.2L254.4,658.7L256.9,660.2L261.3,660.9L265.6,660.2L269.5,662.0L272.9,665.4L274.4,669.5L278.9,670.2L283.2,668.6L287.8,666.3L291.9,664.9L295.3,667.7L299.7,666.7L302.6,658.1L305.3,663.1L309.1,665.2L313.3,664.0L316.0,668.6L320.4,669.0L324.4,670.4L328.4,673.0L331.0,668.6L332.3,664.5L335.7,669.0L340.2,667.9L343.6,670.4L345.9,674.4L350.4,673.2L353.8,670.6L357.2,667.7L361.3,666.1L366.0,664.7L370.2,663.1L373.5,660.7L375.4,657.2L376.2,652.5L375.8,648.1L374.8,644.0L373.6,639.9L372.6,636.0L371.7,632.5L371.5,628.7L371.8,625.0L373.4,621.5L374.7,617.7L375.2,614.2L374.6,610.3L374.2,606.9L375.8,603.1L377.7,600.6L379.8,597.5L382.1,594.9L384.8,592.5L386.1,589.1L387.9,586.9L390.0,584.9L393.2,584.5L395.3,582.0L397.6,580.5L400.4,579.6L402.8,577.7L404.7,575.4L407.3,574.5L409.3,576.4L408.0,578.9L404.6,581.1Z M374.2,513.9L378.5,517.3L383.2,518.7L381.7,521.6L378.5,521.9L376.8,519.8L375.7,522.2L372.8,524.0L369.2,523.4L366.8,521.6L363.3,520.8L359.1,517.5L355.7,514.5L351.1,508.2L353.9,509.4L358.6,513.1L363.0,515.1L364.7,512.5L365.8,508.7L368.8,506.4L371.2,507.1L371.2,507.1L372.5,509.7L374.2,513.9Z M404.8,498.8L407.5,501.2L406.5,503.1L402.0,504.7L400.5,502.8L397.7,505.3L396.0,502.8L400.0,499.6L402.8,500.9L404.8,498.8Z M834.3,491.5L829.2,491.9L829.1,489.1L829.6,487.0L829.8,486.0L831.9,487.6L835.1,488.2L835.2,489.2L834.3,491.5Z M1084.7,449.2L1087.9,450.7L1089.7,450.1L1092.3,449.2L1094.3,449.5L1094.5,454.8L1093.4,456.4L1093.0,460.0L1091.9,458.8L1089.6,462.0L1088.9,461.7L1086.8,461.6L1084.8,457.7L1084.3,454.7L1082.4,450.8L1082.5,448.8L1084.7,449.2Z M1176.7,449.7L1177.5,451.6L1179.9,449.8L1180.8,451.6L1180.8,453.5L1179.6,455.6L1177.4,458.9L1175.7,460.8L1176.9,463.0L1174.4,463.0L1171.5,464.8L1170.6,467.8L1168.7,472.6L1166.1,474.8L1164.4,476.2L1161.4,476.1L1159.2,474.5L1155.6,474.1L1155.0,472.4L1156.8,468.9L1161.0,464.2L1163.2,463.4L1165.6,461.6L1168.4,459.2L1170.4,456.8L1171.9,453.5L1173.2,452.4L1173.7,449.9L1176.0,447.9L1176.7,449.7Z M1182.0,429.4L1184.5,433.8L1184.5,431.0L1186.0,432.1L1186.5,435.3L1189.2,436.6L1191.5,437.0L1193.4,435.4L1195.1,435.8L1194.2,439.6L1193.2,442.1L1190.7,442.0L1189.8,443.3L1190.1,445.2L1189.6,446.0L1188.4,448.3L1186.7,451.4L1184.1,453.1L1183.6,452.0L1182.2,451.3L1184.1,447.7L1183.0,445.3L1179.4,443.6L1179.5,442.0L1181.9,440.5L1182.5,437.2L1182.3,434.5L1181.0,431.7L1181.1,431.0L1179.5,429.3L1176.8,425.6L1175.5,422.8L1176.7,422.5L1178.5,424.7L1181.1,425.8L1182.0,429.4Z M1157.1,375.8L1155.8,376.6L1154.0,375.7L1151.6,374.1L1149.4,372.2L1147.2,369.6L1146.8,368.4L1148.2,368.5L1150.1,369.7L1151.5,370.9L1152.6,371.9L1155.3,374.1L1157.1,375.8Z M1194.6,358.7L1195.7,359.7L1195.2,361.5L1193.1,362.0L1191.3,361.6L1191.0,360.0L1192.2,358.8L1193.8,359.3L1194.6,358.7Z M1197.9,356.8L1195.8,357.6L1195.3,356.3L1197.0,355.5L1198.0,355.4L1200.0,354.3L1200.0,356.0L1197.9,356.8Z M0.3,355.8L0.0,356.0L0.0,354.3L0.7,354.1L0.3,355.8Z M1159.5,355.7L1158.4,356.1L1157.3,354.6L1157.4,353.7L1159.5,355.7Z M1157.0,350.4L1157.6,353.1L1156.7,352.7L1156.0,352.9L1155.5,351.9L1155.4,349.3L1157.0,350.4Z M766.9,345.6L767.4,349.7L768.3,351.4L767.9,353.0L767.3,354.0L766.2,352.0L765.6,353.0L766.2,355.6L765.9,357.1L765.0,357.9L764.8,360.8L763.5,364.9L761.8,369.8L759.8,376.6L758.5,381.7L757.0,385.9L754.3,386.8L751.4,388.3L749.4,387.4L746.8,386.1L745.9,384.1L745.7,380.9L744.5,378.0L744.2,375.4L744.8,372.8L746.3,372.2L746.3,371.0L747.9,368.3L748.2,366.1L747.4,364.4L746.8,362.2L746.5,358.9L747.7,357.0L748.2,354.8L749.8,354.7L751.7,354.0L752.9,353.3L754.4,353.3L756.3,351.3L759.0,349.2L760.0,347.5L759.6,346.0L761.0,346.4L762.8,344.0L762.9,342.0L764.0,340.4L765.1,341.9L766.0,343.4L766.9,345.6Z M1078.5,346.3L1079.7,349.0L1081.9,347.7L1083.0,349.2L1084.6,350.5L1084.2,352.1L1085.0,355.0L1085.5,356.8L1086.3,357.2L1087.2,360.2L1086.9,362.0L1088.0,364.4L1091.6,366.2L1093.9,367.9L1096.2,369.5L1095.7,370.3L1097.6,372.6L1098.9,376.4L1100.3,375.6L1101.6,377.2L1102.4,376.7L1103.0,380.5L1105.4,382.7L1106.9,384.1L1109.5,387.1L1110.5,390.1L1110.5,392.2L1110.3,394.5L1111.9,397.7L1111.7,401.1L1111.1,402.8L1110.2,406.3L1110.3,408.5L1109.6,411.3L1108.2,414.9L1105.7,416.8L1104.5,419.9L1103.4,421.9L1102.4,425.4L1101.1,427.4L1100.3,430.5L1099.8,433.4L1100.0,434.7L1098.1,436.2L1094.3,436.3L1091.3,438.1L1089.7,439.7L1087.7,441.5L1085.0,439.6L1082.9,438.9L1083.4,436.7L1081.6,437.5L1078.7,440.6L1075.8,439.4L1073.9,438.7L1072.0,438.4L1068.8,437.2L1066.6,434.6L1066.0,431.4L1065.2,429.3L1063.6,427.7L1060.4,427.2L1061.5,425.2L1060.7,422.2L1059.1,425.0L1056.1,425.7L1057.8,423.5L1058.3,421.2L1059.6,419.2L1059.4,416.2L1056.7,419.6L1054.6,421.0L1053.3,424.2L1050.7,422.6L1050.8,420.4L1048.7,417.5L1047.0,416.0L1047.6,415.1L1043.3,412.7L1041.0,412.6L1037.8,410.7L1031.8,411.1L1027.5,412.5L1023.7,413.8L1020.5,413.5L1017.0,415.6L1014.1,416.5L1013.4,418.6L1012.2,420.2L1009.4,420.3L1007.3,420.7L1004.3,419.9L1001.9,420.4L999.6,420.5L997.7,422.7L996.7,422.5L995.0,423.7L993.4,424.9L991.0,424.8L988.8,424.8L985.2,422.2L983.4,421.4L983.5,419.1L985.2,418.6L985.7,417.7L985.6,416.2L986.0,413.5L985.6,411.2L983.9,407.2L983.3,405.0L983.5,402.8L982.1,400.4L982.1,399.2L980.6,397.7L980.2,394.8L978.3,391.8L977.8,390.2L979.3,391.8L978.1,388.4L979.8,389.5L980.8,390.9L980.7,389.0L979.1,386.1L978.8,384.9L978.0,383.9L978.3,381.7L979.0,380.8L979.5,379.0L979.1,376.9L980.5,374.3L980.8,377.1L982.2,374.6L984.9,373.4L986.5,371.9L989.0,370.6L990.6,370.3L991.5,370.7L994.1,369.4L996.1,369.0L996.6,368.2L997.5,367.9L999.4,368.0L1002.9,366.9L1004.7,365.4L1005.5,363.5L1007.5,361.7L1007.6,360.3L1007.7,358.4L1010.0,355.4L1011.4,358.5L1012.9,357.8L1011.7,356.1L1012.7,354.4L1014.2,355.2L1014.6,352.5L1016.4,350.8L1017.2,349.5L1018.9,348.9L1019.0,347.9L1020.4,348.3L1020.5,347.5L1021.9,347.0L1023.6,346.5L1026.0,348.1L1027.9,350.1L1030.0,350.2L1032.1,350.5L1031.4,348.6L1033.0,345.8L1034.5,344.9L1033.9,344.1L1035.4,342.1L1037.4,340.9L1039.1,341.3L1041.9,340.7L1041.9,338.9L1039.4,337.8L1041.2,337.3L1043.4,338.2L1045.2,339.6L1048.0,340.4L1048.9,340.1L1051.0,341.1L1052.9,340.2L1054.2,340.5L1055.0,339.8L1056.5,341.5L1055.6,343.3L1054.4,344.7L1053.2,344.8L1053.6,346.2L1052.6,347.9L1051.4,349.6L1051.7,350.6L1054.3,352.5L1056.9,353.6L1058.6,354.8L1061.0,356.8L1062.0,356.8L1063.7,357.7L1064.2,358.8L1067.4,360.0L1069.6,358.8L1070.2,356.9L1070.9,355.4L1071.3,353.5L1072.3,350.7L1071.9,349.1L1072.1,348.1L1071.7,346.1L1072.2,343.5L1072.8,342.8L1072.3,341.7L1073.1,339.9L1073.7,338.0L1073.8,337.0L1075.1,335.8L1076.0,337.4L1076.2,339.6L1077.1,340.0L1077.2,341.4L1078.4,343.1L1078.7,345.1L1078.5,346.3Z M1140.4,335.1L1141.3,336.3L1139.0,336.3L1137.7,334.2L1139.7,335.0L1140.4,335.1Z M1002.4,334.3L1001.0,334.4L996.6,332.0L999.7,331.3L1001.4,332.4L1002.6,333.4L1002.4,334.3Z M1136.2,333.1L1134.9,333.1L1132.8,332.8L1132.1,332.3L1132.3,330.9L1134.5,331.5L1135.6,332.2L1136.2,333.1Z M1138.9,332.2L1138.4,332.8L1136.0,329.8L1135.3,327.8L1136.4,327.8L1137.6,330.5L1138.9,332.2Z M1014.8,334.0L1011.9,334.7L1011.5,334.3L1011.8,333.2L1013.3,331.1L1016.6,329.8L1017.0,329.0L1019.8,328.2L1022.1,328.1L1023.2,327.7L1024.5,328.1L1023.2,329.0L1019.8,330.5L1017.0,331.5L1014.8,334.0Z M993.0,327.1L994.2,328.0L996.3,327.7L997.1,329.1L993.2,329.8L990.9,330.3L989.1,330.2L990.3,328.3L992.1,328.3L993.0,327.1Z M1009.7,327.1L1009.2,328.9L1004.2,329.9L999.7,329.5L999.7,328.3L1002.4,327.6L1004.5,328.6L1006.7,328.3L1009.7,327.1Z M1132.9,327.9L1133.1,328.6L1130.4,327.1L1128.6,325.9L1127.4,324.8L1127.9,324.5L1129.4,325.3L1132.1,326.8L1132.9,327.9Z M1125.1,324.6L1124.5,324.8L1123.0,324.0L1121.6,322.6L1121.8,322.0L1123.8,323.5L1125.1,324.6Z M962.1,322.6L968.5,323.0L969.2,321.6L975.4,323.2L976.6,325.4L981.6,326.0L985.7,328.0L981.9,329.3L978.2,327.9L975.2,328.0L971.7,327.8L968.6,327.2L964.8,325.9L962.3,325.5L960.9,326.0L954.8,324.6L954.3,323.1L951.2,322.9L953.5,319.7L957.6,319.9L960.2,321.2L961.6,321.5L962.1,322.6Z M1049.1,320.8L1047.4,323.0L1047.0,320.5L1047.6,319.3L1048.3,318.2L1049.1,319.2L1049.1,320.8Z M1119.6,322.8L1118.7,323.1L1117.2,321.8L1115.8,319.7L1115.0,317.2L1115.5,316.8L1115.9,317.8L1116.9,318.6L1118.5,320.7L1120.1,321.8L1119.6,322.8Z M1106.6,318.3L1104.9,318.6L1104.3,319.5L1102.5,320.3L1100.8,321.1L1099.0,321.1L1096.3,320.1L1094.4,319.2L1094.7,318.2L1097.7,318.6L1099.5,318.4L1100.0,316.8L1100.5,316.7L1100.8,318.5L1102.7,318.2L1103.6,317.1L1105.5,315.9L1105.1,313.9L1107.1,313.8L1107.8,314.4L1107.7,316.2L1106.6,318.3Z M1024.2,311.5L1022.9,312.6L1020.6,312.0L1020.0,310.6L1023.3,310.4L1024.2,311.5Z M1034.9,310.3L1036.1,312.9L1033.3,311.5L1030.5,311.2L1028.6,311.4L1026.3,311.3L1027.1,309.5L1031.2,309.3L1034.9,310.3Z M1110.5,315.0L1109.4,315.9L1108.8,313.9L1108.0,312.6L1106.5,311.5L1104.6,310.1L1102.2,309.1L1103.1,308.3L1104.9,309.3L1106.1,310.0L1107.5,310.8L1108.8,312.2L1110.1,313.3L1110.5,315.0Z M1047.1,303.8L1048.1,309.2L1051.5,311.2L1054.3,307.7L1058.1,305.7L1061.1,305.7L1063.9,306.8L1066.4,308.0L1070.0,308.7L1075.8,311.0L1081.9,312.9L1084.2,314.6L1086.1,316.3L1086.6,318.2L1092.2,320.3L1093.0,322.1L1089.9,322.5L1090.6,324.7L1093.6,326.9L1095.8,330.5L1097.7,330.4L1097.6,331.9L1100.1,332.4L1099.1,333.1L1102.7,334.5L1102.3,335.5L1100.1,335.7L1099.3,334.8L1096.4,334.5L1093.0,333.9L1090.5,331.8L1088.6,329.9L1086.8,327.0L1082.5,325.5L1079.7,326.5L1077.6,327.6L1078.0,330.1L1075.4,331.2L1073.6,330.7L1070.1,330.5L1067.1,327.8L1063.8,327.1L1062.9,328.0L1058.7,328.1L1060.1,325.4L1062.2,324.5L1061.4,320.8L1059.8,318.0L1053.3,315.2L1050.5,314.9L1045.5,311.8L1044.6,313.4L1043.3,313.7L1042.5,312.5L1042.5,311.0L1040.0,309.4L1043.6,308.2L1045.9,308.3L1045.7,307.4L1040.8,307.4L1039.5,305.4L1036.5,304.8L1035.1,303.1L1039.6,302.3L1041.3,301.2L1046.6,302.6L1047.1,303.8Z M1017.5,295.3L1014.8,298.6L1012.3,299.2L1009.1,298.6L1003.5,298.7L1000.6,299.2L1000.1,301.7L1003.1,304.7L1004.9,303.2L1011.1,302.1L1010.9,303.6L1009.4,303.1L1008.0,305.1L1005.0,306.3L1008.2,310.6L1007.6,311.8L1010.6,315.6L1010.5,317.8L1008.8,318.8L1007.5,317.6L1009.1,314.9L1005.8,316.2L1005.0,315.3L1005.4,314.0L1003.0,312.0L1003.2,308.8L1001.0,309.8L1001.3,313.7L1001.4,318.5L999.3,318.9L997.9,318.0L998.8,314.9L998.3,311.7L996.9,311.6L995.9,309.3L997.3,307.2L997.7,304.5L999.4,299.5L1000.1,298.1L1003.0,295.6L1005.6,296.6L1009.8,297.1L1013.6,296.9L1016.9,294.5L1017.5,295.3Z M1029.0,296.2L1028.8,299.1L1027.1,298.8L1026.6,300.8L1027.9,302.6L1027.0,303.0L1025.7,300.9L1024.7,296.6L1025.3,294.0L1026.4,292.7L1026.7,294.6L1028.6,294.9L1029.0,296.2Z M952.7,319.5L949.0,319.6L946.2,316.8L941.9,314.1L940.5,312.1L938.0,309.3L936.3,306.8L933.8,302.2L930.9,299.4L929.9,296.5L928.7,293.9L925.7,291.8L923.9,289.0L921.4,287.1L917.9,283.4L917.6,281.7L919.8,281.8L924.9,282.5L927.9,285.8L930.5,288.0L932.3,289.4L935.5,293.0L938.9,293.1L941.7,295.3L943.6,298.1L946.1,299.7L944.8,302.4L946.7,303.5L947.9,303.6L948.5,305.9L949.6,307.8L952.1,308.1L953.7,310.2L952.9,314.4L952.7,319.5Z M992.9,293.9L996.7,297.0L992.7,297.4L991.6,299.7L991.7,302.7L988.5,305.0L988.4,308.3L987.2,313.4L986.7,312.2L982.9,313.7L981.6,311.7L979.2,311.5L977.5,310.4L973.6,311.6L972.3,310.0L970.2,310.2L967.4,309.8L966.9,305.3L965.2,304.4L963.6,301.5L963.2,298.6L963.6,295.5L965.5,293.3L968.0,294.5L970.6,293.8L971.2,291.0L972.7,290.4L976.7,289.7L979.0,287.0L980.7,284.9L982.0,283.6L984.8,281.8L987.4,279.5L989.1,276.9L990.4,276.9L992.1,278.5L992.3,280.0L994.5,280.9L997.3,281.9L997.0,283.3L994.8,283.4L995.4,285.1L992.9,286.2L991.0,289.2L993.5,292.4L992.9,293.9Z M1021.3,271.8L1021.6,274.1L1021.8,276.0L1020.7,279.0L1019.4,275.6L1017.9,277.3L1018.9,279.8L1018.0,281.4L1014.1,279.4L1013.1,277.0L1014.1,275.4L1012.0,273.8L1011.0,275.2L1009.4,275.1L1007.0,276.9L1006.4,276.0L1007.7,273.1L1009.8,272.2L1011.6,270.9L1012.8,272.4L1015.3,271.5L1015.9,270.0L1018.2,269.9L1018.0,267.3L1020.7,268.9L1021.0,270.6L1021.3,271.8Z M870.7,279.3L867.8,280.1L866.2,277.4L865.7,272.6L867.2,267.1L869.5,269.0L871.0,271.3L872.6,274.9L872.1,278.3L870.7,279.3Z M396.9,266.1L394.1,266.5L393.5,266.2L394.5,265.3L394.4,263.9L396.3,263.5L397.0,263.6L396.9,266.1Z M1013.3,265.6L1012.1,266.7L1011.0,268.8L1010.0,269.8L1007.9,267.5L1008.6,266.6L1009.5,265.6L1009.8,263.5L1011.7,263.3L1011.1,265.6L1013.6,262.3L1013.3,265.6Z M995.0,268.8L990.6,272.0L992.2,269.7L994.6,267.6L996.6,265.2L998.4,261.8L999.0,264.6L996.8,266.5L995.0,268.8Z M1006.3,260.1L1008.3,261.1L1010.4,261.1L1010.3,262.5L1008.8,264.0L1006.7,265.0L1006.6,263.4L1006.8,261.7L1006.3,260.1Z M1018.3,259.1L1019.3,262.9L1016.7,262.0L1016.8,263.2L1017.6,265.3L1016.0,266.0L1015.9,263.7L1014.9,263.5L1014.3,261.4L1016.3,261.7L1016.3,260.4L1014.2,257.8L1017.4,257.9L1018.3,259.1Z M1005.1,256.1L1004.2,259.0L1002.8,257.3L1001.1,254.7L1003.9,254.8L1005.1,256.1Z M1004.4,237.2L1006.5,238.2L1007.5,237.3L1007.8,238.2L1007.2,239.7L1008.4,242.2L1007.5,245.0L1005.5,246.2L1005.0,249.0L1005.8,251.7L1007.5,252.1L1009.0,251.7L1013.2,253.6L1012.9,255.5L1013.9,256.3L1013.6,257.9L1011.0,256.2L1009.8,254.4L1008.9,255.7L1006.8,253.6L1003.8,254.1L1002.1,253.4L1002.3,251.9L1003.3,251.1L1002.3,250.3L1001.9,251.5L1000.2,249.5L999.7,248.0L999.6,244.7L1001.0,245.8L1001.3,240.4L1002.4,237.2L1004.4,237.2Z M381.4,238.2L380.5,239.1L378.0,239.1L376.1,239.2L375.9,237.7L376.3,237.2L379.1,237.2L380.8,237.5L381.4,238.2Z M343.7,239.4L342.6,240.0L340.8,239.5L338.9,238.2L339.3,237.4L340.7,237.1L341.4,237.3L343.7,237.6L345.4,238.4L346.0,239.4L343.7,239.4Z M358.1,232.4L361.0,232.9L361.4,232.3L364.0,232.4L366.0,233.3L366.8,233.2L367.4,234.4L369.3,234.4L369.2,235.4L370.6,235.5L372.3,236.8L371.0,238.3L369.5,237.5L367.9,237.7L366.8,237.5L366.2,238.1L364.9,238.3L364.4,237.5L363.3,238.0L362.0,240.4L361.1,239.8L361.0,238.8L358.8,238.2L357.2,238.5L355.2,238.2L353.6,238.9L351.8,237.8L352.1,236.7L355.2,237.1L357.7,237.4L358.9,236.6L357.4,235.1L357.4,233.8L355.3,233.2L356.0,232.2L358.1,232.4Z M967.8,236.6L964.9,238.3L962.2,237.2L962.1,234.2L963.7,232.6L967.4,231.6L969.3,231.7L970.0,233.0L968.6,234.6L967.8,236.6Z M81.5,235.2L81.0,235.8L80.2,235.3L80.3,234.3L79.8,233.0L79.9,232.6L80.5,232.0L80.3,231.3L80.5,231.0L80.7,231.1L82.0,231.7L82.6,232.0L83.1,232.4L84.0,233.7L83.9,233.9L82.6,234.6L81.5,235.2Z M79.7,229.6L78.6,229.9L78.0,229.2L77.7,228.9L77.6,228.6L78.0,228.3L79.1,228.7L80.0,229.2L79.7,229.6Z M77.5,227.7L77.4,228.1L75.6,228.0L75.8,227.6L77.5,227.7Z M74.5,227.2L74.3,227.4L74.1,227.4L72.9,227.3L72.5,226.4L72.4,226.3L73.2,225.8L73.5,226.0L74.5,227.2Z M68.8,224.9L68.5,225.2L67.3,224.6L67.5,224.3L68.0,223.9L68.8,224.0L68.8,224.9Z M334.4,222.0L335.7,223.4L338.8,223.0L340.0,223.8L342.8,226.0L344.9,227.6L346.0,227.6L348.0,228.3L347.8,229.3L350.2,229.5L352.7,230.9L352.3,231.8L350.1,232.2L347.9,232.4L345.6,232.1L340.8,232.4L343.0,230.5L341.7,229.5L339.5,229.3L338.4,228.3L337.6,226.2L335.7,226.4L332.6,225.4L331.6,224.7L327.3,224.1L326.1,223.4L327.3,222.5L324.1,222.3L321.7,224.2L320.3,224.2L319.8,225.1L318.2,225.5L316.8,225.2L318.5,224.1L319.2,222.8L320.7,222.0L322.4,221.2L325.0,220.9L325.8,220.5L328.7,220.8L331.3,220.8L334.4,222.0Z M341.6,218.4L340.7,218.6L339.9,216.5L338.6,215.4L339.4,213.1L340.4,213.3L341.5,216.3L341.6,218.4Z M1003.9,221.9L1002.5,224.9L1000.7,221.9L1000.4,219.2L1002.3,215.6L1005.0,212.8L1006.5,213.9L1005.9,216.1L1003.9,221.9Z M340.6,208.0L337.0,208.6L336.7,207.3L338.3,207.0L340.5,207.1L340.6,208.0Z M343.3,208.0L342.8,210.6L342.1,210.2L342.2,208.2L340.7,206.8L340.7,206.3L343.3,208.0Z M1048.8,178.8L1049.2,180.1L1047.3,182.6L1046.0,181.3L1044.3,182.2L1043.4,184.5L1041.2,183.4L1041.2,181.5L1043.1,179.1L1045.0,179.6L1046.3,177.9L1048.8,178.8Z M715.3,172.6L713.0,174.3L713.2,175.1L713.3,175.4L709.9,177.1L708.3,176.5L707.5,174.9L709.1,174.7L709.3,174.7L709.8,173.7L712.2,173.8L715.3,172.6Z M679.0,172.4L680.8,173.8L683.4,173.6L685.9,173.9L685.8,174.6L687.6,174.1L687.2,175.3L682.4,175.6L682.5,175.0L678.4,174.2L679.0,172.4Z M651.7,161.9L650.5,165.2L651.0,166.5L650.3,168.7L647.8,167.1L646.1,166.6L641.4,164.5L641.9,162.3L645.8,162.7L649.2,162.3L651.7,161.9Z M630.7,149.0L632.7,152.1L632.2,157.9L630.7,157.6L629.4,159.0L628.1,157.9L628.0,152.6L627.2,150.1L629.0,150.4L630.7,149.0Z M1069.9,166.5L1068.7,169.8L1069.2,171.9L1067.5,174.8L1063.3,176.7L1057.4,176.9L1052.6,181.5L1050.4,180.0L1050.3,177.0L1044.5,177.8L1040.5,179.7L1036.6,179.8L1040.0,182.8L1037.8,189.5L1035.6,191.1L1034.0,189.6L1034.8,186.1L1032.7,184.9L1031.4,182.2L1034.5,181.0L1036.3,178.4L1039.6,176.3L1042.1,173.5L1048.7,172.3L1052.3,173.2L1055.7,165.8L1058.0,167.8L1062.9,163.6L1064.8,162.0L1066.8,156.7L1066.3,151.8L1067.7,149.0L1071.2,148.2L1073.0,154.3L1072.9,157.8L1069.9,162.1L1069.9,166.5Z M631.9,144.8L630.8,148.2L629.3,147.3L628.5,144.3L629.2,142.6L631.3,140.9L631.9,144.8Z M1079.7,135.5L1082.0,136.5L1084.4,134.6L1085.1,139.7L1080.2,141.0L1077.3,145.5L1072.0,142.4L1070.2,147.3L1066.5,147.4L1066.1,142.9L1067.7,139.4L1071.3,139.2L1072.2,132.7L1073.2,129.1L1077.1,134.0L1079.7,135.5Z M387.8,124.3L390.2,124.9L393.3,124.8L391.7,126.8L390.4,127.1L386.2,125.0L385.4,123.4L386.6,121.9L387.8,124.3Z M394.0,111.6L392.4,111.7L388.0,110.1L384.9,107.6L386.1,107.2L390.5,108.5L393.9,110.6L394.0,111.6Z M188.3,114.6L186.6,115.3L181.1,113.0L180.2,111.2L177.2,109.4L176.6,107.9L173.1,107.0L171.9,104.2L172.1,102.9L175.6,104.1L177.7,104.9L180.8,105.4L181.9,107.2L183.6,109.7L186.9,111.8L188.3,114.6Z M412.9,103.4L410.7,107.9L412.9,106.2L415.1,107.3L413.9,109.1L416.9,110.5L418.4,109.3L421.7,110.8L420.7,114.5L423.0,113.7L423.5,116.4L424.5,119.4L423.1,123.7L421.6,123.9L419.4,123.0L420.1,119.0L419.2,118.4L415.3,122.6L413.3,122.5L415.7,120.2L412.5,119.0L408.9,119.3L402.4,119.1L401.9,117.6L404.0,115.9L402.6,114.5L405.4,111.5L408.8,103.2L410.9,100.2L413.8,98.4L415.3,98.6L414.7,100.0L412.9,103.4Z M157.6,85.1L157.6,85.1L157.6,85.1L157.6,85.1L160.8,84.6L159.8,91.0L162.7,95.4L161.4,95.4L159.4,92.9L158.2,90.3L156.5,88.6L155.9,86.1L156.1,84.3L157.6,85.1Z M1078.8,103.1L1082.2,112.2L1077.2,110.5L1075.2,117.8L1078.4,122.9L1078.4,126.3L1075.8,123.3L1073.6,127.1L1073.0,123.0L1073.4,118.2L1073.0,112.8L1073.8,109.0L1073.9,102.0L1072.0,96.7L1072.3,89.2L1075.4,86.6L1074.0,84.0L1075.5,83.2L1076.4,87.0L1077.5,92.3L1077.5,97.7L1078.8,103.1Z M577.4,95.0L571.5,98.2L566.7,97.3L569.4,91.7L567.7,86.0L572.2,81.5L574.8,78.8L577.6,78.6L581.1,82.1L579.3,86.0L579.9,90.1L577.4,95.0Z M642.3,76.0L640.3,80.7L636.8,77.4L636.3,75.0L641.2,73.0L642.3,76.0Z M90.0,66.9L86.6,69.3L84.9,67.7L84.4,64.8L87.5,62.6L89.2,61.6L91.5,62.0L92.9,64.0L90.0,66.9Z M590.0,57.4L586.4,64.2L589.8,63.4L593.5,63.4L592.6,68.4L589.6,73.8L593.0,74.2L596.3,81.7L598.6,82.6L600.6,89.1L601.6,91.3L605.6,92.3L605.2,95.8L603.5,97.4L604.8,100.2L601.8,103.0L597.4,102.9L591.7,104.4L590.1,103.3L587.9,105.8L584.9,105.2L582.5,107.2L580.7,106.1L585.6,100.6L588.6,99.5L583.4,98.6L582.4,96.4L585.9,94.7L584.1,91.8L584.7,88.1L589.7,88.7L590.2,85.4L587.9,81.8L583.9,80.8L583.1,79.2L584.3,76.6L583.2,75.0L581.4,77.7L581.2,72.0L579.5,68.9L580.7,62.6L583.3,57.4L586.0,57.9L590.0,57.4Z M48.1,49.1L46.0,50.1L43.8,48.9L41.8,47.1L45.1,45.9L47.8,46.5L48.1,49.1Z M335.8,33.6L334.5,37.3L333.0,36.7L332.1,34.6L332.3,34.1L333.6,32.0L334.9,32.1L335.8,33.6Z M327.0,29.6L323.1,33.6L320.8,33.4L320.0,31.5L322.5,28.1L327.1,28.2L327.0,29.6Z M27.6,21.7L29.6,23.1L31.7,22.3L34.4,24.3L37.7,25.3L37.4,26.1L34.9,27.7L32.4,26.1L31.1,24.7L28.2,25.2L27.4,24.5L27.6,21.7Z M316.1,7.0L316.7,10.6L318.5,9.3L320.4,11.4L324.0,14.1L327.9,16.5L328.2,20.2L330.6,19.6L333.0,22.1L330.0,24.5L324.8,22.7L323.0,19.3L319.7,23.3L314.9,27.1L313.8,22.8L309.3,23.5L312.2,19.8L312.6,13.7L313.7,6.4L316.1,7.0Z M551.6,0.5L550.9,5.8L554.6,11.3L550.3,17.2L540.7,22.5L537.8,23.8L533.4,22.7L524.1,20.3L527.4,17.0L520.1,13.1L526.1,11.6L525.9,9.3L518.9,7.4L521.2,2.1L526.2,0.9L531.4,6.4L536.5,2.0L540.7,4.3L546.1,-0.1L551.6,0.5Z M347.1,-5.4L343.4,-5.0L342.5,-9.2L344.0,-14.1L347.0,-15.4L349.6,-12.9L349.7,-9.1L349.3,-7.9L347.1,-5.4Z M16.6,-0.6L18.9,1.5L18.1,-4.6L27.1,-3.4L33.7,4.4L30.4,8.0L24.9,8.8L24.8,16.5L23.5,18.1L20.4,17.9L17.8,15.2L13.4,12.9L12.6,9.5L9.3,8.1L5.5,9.2L3.7,6.4L4.4,3.3L0.4,5.3L1.9,9.1L0.0,12.4L0.0,-21.6L8.2,-14.6L16.9,-5.9L16.6,-0.6Z M281.2,-22.9L279.1,-19.7L274.6,-22.5L271.9,-21.5L267.3,-25.7L270.3,-28.6L272.6,-32.8L276.1,-30.1L278.1,-28.3L279.1,-26.5L281.2,-22.9Z M1200.0,-39.7L1196.3,-39.2L1195.8,-42.4L1200.0,-46.8L1200.0,-39.7Z M4.4,-40.3L0.0,-39.7L0.0,-46.8L0.4,-47.2L3.3,-47.2L8.1,-44.2L7.8,-42.8L4.4,-40.3Z M298.2,-26.6L298.2,-17.1L302.6,-24.3L306.6,-18.4L305.6,-11.7L308.8,-5.8L312.3,-12.1L314.7,-19.9L314.9,-30.3L319.7,-29.6L324.6,-28.1L329.1,-23.4L329.3,-18.8L326.8,-14.0L329.1,-9.3L328.7,-5.1L322.2,0.8L317.5,2.1L314.1,-0.4L313.1,3.8L309.9,10.6L308.9,14.1L305.1,19.3L300.3,19.8L297.7,23.0L297.4,27.8L293.6,28.7L289.5,34.5L285.9,42.4L284.6,47.7L284.4,55.4L289.3,56.5L290.8,62.4L292.3,67.1L297.0,65.9L303.2,68.5L306.5,70.8L308.9,73.7L313.1,75.3L316.6,77.8L322.1,78.1L325.8,78.7L325.2,83.7L326.3,89.4L328.7,95.5L333.6,100.6L336.2,98.9L338.0,93.3L336.3,84.5L333.9,81.5L339.2,78.8L343.0,74.6L344.9,70.5L344.6,66.4L342.3,61.1L338.3,56.3L342.2,49.5L340.8,43.4L339.6,32.4L342.0,30.8L347.7,32.7L351.1,33.4L353.9,31.5L357.0,34.0L361.1,38.1L362.1,40.8L368.0,41.3L367.9,47.0L369.0,55.3L372.1,56.3L374.5,60.1L379.3,56.5L382.5,49.3L384.7,46.2L387.3,52.2L391.7,60.4L395.3,67.8L394.0,71.6L398.4,75.0L401.4,78.4L406.7,79.9L408.9,81.7L410.2,86.5L412.8,87.3L414.1,89.4L414.4,95.6L412.0,97.6L409.6,99.5L404.1,101.4L399.9,105.7L394.3,106.6L387.1,105.5L382.1,105.4L378.7,105.8L375.9,109.5L371.6,111.8L366.8,118.4L363.0,122.9L365.8,122.1L371.2,115.6L378.2,111.4L383.1,110.9L386.1,113.4L382.9,116.8L384.0,122.1L385.1,125.8L389.4,128.2L394.9,127.5L398.3,122.0L398.5,125.6L400.7,127.3L396.5,130.4L389.2,133.2L385.8,135.1L382.1,138.4L379.6,138.1L379.5,134.2L385.2,130.3L379.9,130.4L376.2,131.0L376.8,132.6L373.2,134.8L369.8,136.4L366.3,137.8L364.4,140.8L364.0,141.6L363.9,144.0L365.0,146.3L366.4,146.4L366.1,144.8L367.1,145.8L366.8,147.1L364.5,147.8L362.9,147.7L360.5,148.5L359.0,148.7L357.1,148.9L354.3,150.2L359.2,149.4L360.2,150.2L355.5,151.5L353.4,151.5L353.5,151.0L352.5,152.2L353.5,152.4L352.7,155.6L350.3,158.9L350.1,157.8L349.3,157.5L348.2,156.5L348.9,158.8L349.7,159.6L349.8,161.2L348.7,162.8L346.9,166.2L346.6,166.0L347.6,163.1L345.9,161.5L345.5,158.0L344.9,159.8L345.6,162.5L343.5,161.9L345.7,163.2L345.8,167.2L346.8,167.5L347.1,168.9L347.6,173.1L345.5,176.1L342.0,177.3L339.8,179.7L338.2,179.9L336.5,181.4L336.0,182.7L332.3,185.3L330.5,187.2L328.9,189.5L328.4,192.3L329.0,195.0L330.1,198.2L331.5,200.9L331.6,202.6L333.1,206.9L333.0,209.4L332.9,210.9L332.1,213.1L331.1,213.6L329.4,213.1L328.9,211.5L327.6,210.7L325.9,207.5L324.3,204.6L323.8,203.1L324.5,200.6L323.6,198.5L321.0,195.3L319.7,194.7L316.3,196.5L315.7,196.3L314.1,194.5L312.0,193.5L308.2,194.0L305.3,193.6L302.7,193.9L301.3,194.4L302.0,195.5L301.9,197.1L302.6,197.8L302.0,198.3L300.7,197.7L299.5,198.5L297.1,198.4L294.6,196.3L291.7,196.8L289.2,195.9L287.2,196.2L284.4,197.1L281.3,199.9L278.0,201.6L276.2,203.4L275.4,205.0L275.4,207.6L275.6,209.4L276.2,210.7L276.2,210.7L276.2,210.7L274.9,213.9L274.3,216.6L274.1,221.4L273.8,223.2L274.3,225.2L275.4,226.9L276.0,229.7L278.2,232.3L279.0,234.3L280.3,236.1L283.9,237.0L285.2,238.5L288.2,237.5L290.7,237.1L293.2,236.5L295.3,235.9L297.4,234.5L298.2,232.4L298.5,229.4L299.1,228.4L301.3,227.4L304.9,226.6L307.8,226.7L309.8,226.4L310.6,227.2L310.5,228.9L308.7,231.0L307.9,233.2L308.5,233.8L308.0,235.3L307.2,238.1L306.4,237.2L305.7,237.2L305.7,237.7L306.3,237.8L306.3,238.7L305.7,240.2L306.0,240.8L305.7,242.0L305.9,242.4L305.5,244.1L304.8,245.0L304.2,245.1L303.6,246.4L304.7,247.0L304.9,246.5L305.9,246.9L306.3,247.0L307.0,246.4L307.9,246.4L308.3,246.7L308.8,246.5L310.3,246.8L311.9,246.7L312.9,246.3L313.3,245.9L314.4,246.1L315.2,246.4L316.1,246.3L316.7,246.0L318.2,246.5L318.8,246.5L319.8,247.2L320.8,248.0L322.0,248.5L322.8,249.4L322.6,249.8L322.4,250.5L322.7,251.8L322.0,253.0L321.6,254.3L321.5,255.9L321.7,256.7L321.8,258.3L321.2,258.6L320.9,260.1L321.2,261.0L320.5,261.8L320.6,262.8L321.1,263.3L322.0,265.2L323.3,266.5L324.8,268.0L326.0,269.2L326.0,269.9L327.3,270.0L327.6,269.8L328.5,270.6L330.2,270.4L331.6,269.5L333.6,268.8L334.8,267.8L336.6,268.0L336.5,268.3L338.3,268.5L339.8,269.0L340.9,270.1L342.2,271.0L343.9,271.1L346.4,268.7L347.8,268.4L347.8,267.3L348.4,264.4L350.3,262.8L352.4,262.8L352.7,262.1L355.3,262.3L357.9,260.6L359.2,259.9L360.8,258.2L362.0,258.4L362.9,259.3L362.2,260.5L362.1,261.3L360.2,261.7L361.3,263.2L361.2,265.0L359.8,267.0L361.0,269.6L362.5,269.4L363.2,267.0L362.2,265.8L362.0,263.2L366.1,261.8L365.7,260.2L366.9,259.2L368.1,261.5L370.4,261.6L372.6,263.5L372.7,264.6L375.7,264.6L379.2,264.3L381.1,265.8L383.7,266.2L385.6,265.2L385.6,264.3L389.7,264.1L393.7,264.1L390.9,265.1L392.0,266.7L394.7,266.9L397.2,268.6L397.8,271.3L399.5,271.2L400.8,272.0L403.0,273.2L405.1,275.4L405.2,277.2L406.4,277.2L408.2,278.9L409.5,280.1L413.5,280.7L413.9,280.1L416.6,279.9L420.1,280.8L421.3,281.1L423.7,281.9L427.3,284.8L427.8,286.1L428.9,286.0L429.8,287.8L431.6,293.7L433.4,294.2L433.5,296.5L431.0,299.3L432.0,300.3L437.9,300.8L438.1,304.1L440.6,301.9L444.8,303.1L450.3,305.2L451.9,307.1L451.4,309.0L455.3,307.9L461.8,309.7L466.7,309.6L471.7,312.3L475.9,316.1L478.5,317.1L481.3,317.2L482.5,318.2L483.7,322.5L484.2,324.5L482.9,330.1L481.2,332.3L476.5,337.0L474.4,340.9L471.9,343.8L471.1,343.9L470.2,346.4L470.4,352.9L469.5,358.2L469.1,360.5L468.1,361.9L467.5,366.6L464.1,371.3L463.5,375.0L460.8,376.5L460.0,378.7L456.4,378.7L451.2,380.1L448.8,381.7L445.1,382.8L441.2,385.7L438.3,389.3L437.9,392.1L438.4,394.2L437.8,398.0L437.0,399.8L434.7,401.9L431.0,408.7L428.1,411.8L425.8,413.7L424.3,417.4L422.1,419.7L420.6,422.2L416.9,424.5L414.4,423.7L412.6,424.1L409.5,422.4L407.3,422.5L405.2,420.3L405.0,422.4L409.2,425.9L408.8,428.7L410.9,430.5L410.7,432.5L407.5,437.9L402.6,440.2L395.9,441.1L392.2,440.6L392.9,443.2L392.2,446.5L392.8,448.7L390.8,450.2L387.4,450.8L384.2,449.2L382.9,450.4L383.4,454.8L385.7,456.2L387.5,454.7L388.5,457.1L385.4,458.5L382.7,461.3L382.2,466.0L381.4,468.5L378.3,468.5L375.7,470.9L374.7,474.5L378.0,478.1L381.2,479.1L380.0,483.5L376.1,486.4L373.9,492.4L370.9,494.4L369.5,496.9L370.6,502.4L372.8,505.5L371.4,505.2L368.5,505.2L366.9,506.6L363.8,508.5L363.3,513.8L361.9,513.9L358.1,512.1L354.3,508.2L350.2,505.0L349.1,501.6L350.1,498.5L348.4,495.0L348.0,486.2L349.4,481.4L352.9,477.6L347.9,476.2L351.0,472.0L352.2,464.1L355.9,465.8L357.6,456.3L355.4,455.1L354.3,460.7L352.2,460.1L353.3,453.6L354.4,445.5L355.9,442.5L355.0,438.3L354.7,433.6L356.1,433.4L358.2,426.8L360.5,420.3L361.9,414.3L361.1,408.5L362.1,405.3L361.7,400.6L363.6,395.9L364.3,388.7L365.3,381.1L366.4,373.0L366.1,367.2L365.4,362.2L362.1,360.2L361.8,358.8L355.2,355.3L349.2,351.5L346.6,349.4L345.3,346.5L345.8,345.5L343.0,341.1L339.7,334.8L336.5,328.1L335.2,326.5L334.1,324.0L331.5,321.9L329.2,320.5L330.2,319.0L328.6,315.8L329.7,313.5L332.3,311.4L334.1,308.9L333.4,307.4L332.1,309.0L330.1,307.5L330.8,306.6L330.2,303.5L331.4,303.0L332.0,300.9L333.3,298.8L333.0,297.4L334.9,296.7L337.1,295.4L336.7,294.4L337.9,294.1L337.8,292.4L338.6,291.2L340.2,291.0L341.6,288.9L342.9,287.2L341.7,286.4L342.3,284.4L341.6,281.4L342.3,280.5L341.7,277.6L340.4,275.9L339.3,274.9L338.6,273.1L339.4,272.2L338.5,271.9L337.9,270.8L336.3,269.9L334.8,270.1L334.1,271.3L332.8,272.1L332.1,272.2L331.7,272.9L333.3,274.8L332.4,275.2L331.9,275.7L330.4,275.9L329.8,273.9L329.4,274.4L328.3,274.2L327.6,272.9L326.2,272.7L325.4,272.3L323.9,272.3L323.8,273.0L323.4,272.5L321.6,271.7L321.0,271.0L321.3,270.4L321.2,269.7L320.3,268.9L319.0,268.2L317.8,267.8L317.6,266.8L316.7,266.2L317.0,267.2L316.3,268.0L315.5,267.1L314.5,266.7L314.0,266.0L314.0,265.0L314.5,263.9L313.5,263.5L314.3,262.8L313.1,261.7L311.6,260.4L310.8,259.2L309.4,258.1L307.8,256.6L308.1,256.1L308.7,256.6L308.9,256.3L308.4,255.3L307.4,255.0L307.0,255.8L305.1,255.7L303.9,255.4L302.5,254.7L300.6,254.5L299.7,253.8L298.0,253.2L295.9,253.1L294.4,252.4L292.6,251.0L288.8,247.3L287.1,246.2L284.4,245.3L282.5,245.5L279.8,246.8L278.1,247.2L275.8,246.2L273.3,245.6L270.2,244.0L267.7,243.5L263.9,241.9L261.1,240.2L260.3,239.3L258.4,239.1L255.0,238.0L253.6,236.4L250.0,234.4L248.4,232.1L247.6,230.4L248.7,230.0L248.3,229.0L249.1,228.1L249.1,226.9L248.0,225.3L247.7,223.8L246.6,222.0L243.6,218.4L240.3,215.5L238.7,213.3L235.8,211.7L235.2,210.8L235.7,208.6L234.0,207.7L232.0,205.9L231.2,203.2L229.4,202.9L227.5,200.9L225.9,199.1L225.8,197.9L224.0,195.0L222.8,192.0L222.8,190.6L220.4,189.0L219.3,189.2L217.4,188.1L216.9,189.7L217.4,191.6L217.8,194.5L218.9,196.0L221.4,198.7L221.9,199.6L222.4,199.9L222.9,201.2L223.5,201.1L224.1,203.5L225.1,204.5L225.9,205.8L227.9,207.7L229.1,211.2L230.0,212.8L231.0,214.5L231.1,216.5L232.8,216.6L234.1,218.2L235.3,219.9L235.2,220.5L233.8,221.8L233.2,221.8L232.4,219.6L230.2,217.5L227.8,215.8L226.1,214.8L226.2,212.2L225.7,210.2L224.1,209.0L221.8,207.3L221.3,207.8L220.5,206.8L218.4,205.9L216.5,203.8L216.7,203.5L218.1,203.7L219.3,202.3L219.5,200.6L216.9,197.9L214.9,196.8L213.7,194.4L212.5,191.9L210.9,188.7L209.6,185.2L209.0,183.2L206.9,180.9L205.3,180.4L204.9,179.3L203.1,179.0L201.9,178.0L198.8,177.6L197.9,176.9L197.5,174.7L194.3,170.6L191.5,164.8L191.6,163.8L190.2,162.4L187.6,158.8L187.1,155.3L185.3,152.9L186.1,149.3L186.0,145.5L184.9,142.0L186.2,137.7L187.0,129.2L186.4,122.7L185.3,118.5L184.4,116.2L184.8,115.2L189.6,116.9L191.4,121.6L192.2,120.3L191.7,116.2L190.5,112.1L190.1,112.1L183.6,107.1L181.3,104.8L175.2,102.6L173.4,97.9L173.8,94.6L169.6,92.3L169.0,87.8L165.0,83.7L164.9,80.7L163.0,78.5L160.1,76.6L159.2,71.5L154.9,66.5L153.1,60.7L149.9,60.2L144.6,60.1L140.7,58.3L133.8,51.5L130.6,50.3L124.8,47.9L120.1,48.5L113.6,45.4L109.6,42.5L105.9,43.9L106.6,48.6L104.8,49.1L100.9,50.4L98.0,52.7L94.3,54.0L93.8,50.2L95.3,43.6L98.8,41.5L97.9,39.7L93.7,43.6L91.4,48.1L86.6,52.8L89.0,55.9L85.9,60.5L82.3,63.1L79.0,65.0L78.1,67.8L72.9,70.9L71.9,73.7L68.0,76.2L65.7,75.8L62.6,77.4L59.2,79.4L56.4,81.4L50.7,83.0L50.2,82.0L53.8,79.3L57.1,77.5L60.7,74.3L64.8,73.6L66.4,71.2L71.1,67.5L71.8,66.3L74.3,64.1L74.8,59.4L76.5,55.6L72.7,57.5L71.6,56.4L69.8,58.7L67.6,55.5L66.7,57.8L65.5,54.6L62.2,57.2L60.1,57.2L59.8,53.3L60.4,50.9L58.3,48.5L53.9,49.8L51.1,46.7L48.8,45.1L48.8,41.2L46.3,38.2L47.6,34.2L50.3,30.2L51.5,26.4L54.2,25.9L56.4,27.1L59.1,23.5L61.6,24.1L64.1,21.8L63.5,18.3L61.6,16.9L64.1,13.9L62.0,14.0L58.5,15.7L57.5,17.4L54.8,15.7L50.1,16.6L45.2,14.7L43.9,11.6L39.6,6.9L44.3,3.5L51.8,-0.5L54.5,-0.5L54.0,3.6L61.1,3.3L58.4,-1.9L54.3,-5.1L51.9,-9.4L48.7,-13.2L44.1,-16.0L46.0,-20.8L51.9,-21.1L56.1,-25.4L56.9,-30.1L60.3,-34.7L63.6,-35.9L69.9,-40.3L72.9,-39.6L78.1,-45.1L83.1,-42.9L85.5,-38.3L87.0,-40.3L92.6,-39.7L92.4,-37.4L97.5,-35.7L100.9,-36.7L108.0,-33.5L114.4,-32.6L116.9,-31.3L121.4,-32.9L126.4,-30.0L130.0,-28.7L136.3,-26.3L141.5,-21.8L145.0,-21.0L147.9,-24.9L152.0,-27.8L156.9,-26.7L161.9,-30.9L167.4,-33.3L169.6,-29.3L172.1,-31.6L172.9,-36.2L175.2,-35.2L180.8,-26.4L185.3,-33.0L185.7,-25.7L189.8,-27.2L191.1,-30.0L195.1,-29.5L200.2,-25.5L208.0,-22.0L212.6,-20.5L215.8,-21.0L220.3,-16.4L215.7,-12.0L221.7,-10.1L230.7,-11.1L233.5,-12.7L237.1,-7.4L240.7,-11.8L237.3,-15.6L239.4,-18.7L243.5,-19.1L246.2,-20.1L248.9,-17.9L252.2,-13.0L255.9,-13.7L261.8,-9.7L267.0,-11.1L271.9,-10.9L271.5,-16.4L274.4,-18.0L279.6,-15.0L279.6,-6.6L281.7,-13.6L284.4,-13.4L285.9,-22.6L282.3,-28.4L278.4,-32.3L278.7,-43.4L282.6,-51.1L287.0,-49.4L290.4,-44.7L294.9,-33.3L292.0,-28.5L298.2,-26.6Z M219.4,-64.4L217.8,-59.1L225.2,-62.5L229.8,-56.9L233.6,-62.6L236.6,-58.9L239.4,-48.2L241.0,-52.6L238.7,-64.0L241.6,-65.7L244.9,-63.9L248.7,-59.3L250.8,-48.7L251.8,-41.4L257.4,-36.3L263.4,-31.7L263.0,-27.4L257.6,-26.7L259.7,-23.0L258.6,-19.6L252.5,-21.1L246.8,-23.6L242.9,-23.0L236.7,-19.9L226.8,-18.3L222.3,-17.6L220.5,-22.0L215.9,-24.5L213.0,-23.5L208.9,-31.1L211.1,-32.1L216.2,-33.8L220.9,-33.3L225.3,-35.0L218.8,-37.4L211.7,-36.6L207.0,-36.8L205.2,-40.5L213.0,-44.6L207.8,-44.5L202.0,-47.2L204.8,-55.3L207.1,-59.7L216.0,-66.6L219.4,-64.4Z M251.7,-67.9L248.7,-60.3L243.5,-68.3L244.7,-70.0L249.1,-70.5L251.7,-67.9Z M345.5,-64.2L345.8,-61.1L342.3,-61.4L338.7,-61.6L335.0,-60.1L334.1,-60.8L330.4,-66.9L330.6,-71.1L332.2,-71.9L339.8,-70.6L345.5,-64.2Z M311.5,-64.8L314.1,-57.8L317.2,-66.9L325.6,-71.8L331.3,-59.8L330.8,-52.6L337.4,-55.8L340.6,-60.2L348.0,-54.6L352.6,-49.4L353.0,-44.8L359.2,-47.2L362.7,-40.6L370.7,-36.6L373.6,-32.6L376.8,-23.7L370.6,-19.3L378.5,-13.4L383.8,-11.5L388.6,-3.5L393.8,-2.9L392.8,2.9L386.9,12.3L382.8,8.9L377.6,1.0L373.3,2.1L372.9,6.8L376.4,11.4L380.9,15.0L382.3,17.1L384.4,24.6L383.3,29.9L379.1,27.9L370.7,22.0L375.4,28.4L378.9,32.7L379.4,35.2L370.4,32.4L363.3,28.2L359.2,24.6L360.4,22.5L355.4,18.6L350.6,14.8L350.6,17.1L341.0,18.3L338.1,15.6L340.3,9.8L346.6,9.7L353.5,8.7L352.4,5.8L353.5,1.7L357.8,-6.6L356.9,-10.4L355.6,-13.4L350.5,-17.8L343.8,-20.9L345.9,-23.3L342.4,-29.2L339.4,-29.8L336.8,-33.1L335.0,-30.2L329.0,-29.0L316.9,-31.1L309.8,-34.0L304.4,-35.5L301.6,-39.0L305.1,-43.7L300.4,-43.7L299.3,-54.5L301.9,-64.5L305.3,-69.3L313.9,-72.4L311.5,-64.8Z M265.5,-72.9L269.5,-70.4L275.4,-71.9L276.3,-68.5L273.2,-62.9L278.2,-58.1L277.6,-48.3L272.1,-44.2L268.9,-45.1L266.6,-49.1L258.3,-57.5L258.4,-61.1L265.2,-59.7L261.5,-67.2L265.5,-72.9Z M1078.7,-65.5L1073.6,-65.4L1066.8,-66.7L1066.2,-67.3L1069.4,-71.9L1073.5,-73.0L1078.3,-68.5L1078.7,-65.5Z M289.3,-60.4L285.8,-52.2L282.0,-52.6L279.9,-62.3L279.9,-68.1L281.7,-73.1L285.0,-76.4L291.9,-76.0L298.3,-73.0L293.3,-62.6L289.3,-60.4Z M198.5,-45.6L189.7,-40.4L187.9,-44.9L180.2,-50.5L181.4,-54.0L184.0,-63.3L186.9,-70.9L183.6,-78.3L194.9,-80.3L199.6,-77.7L208.1,-77.0L211.4,-73.5L215.0,-68.5L210.8,-65.6L202.6,-57.6L198.5,-50.0L198.5,-45.6Z M1102.4,-88.3L1098.6,-83.3L1093.3,-84.4L1087.1,-89.5L1087.9,-93.7L1094.1,-91.7L1102.4,-88.3Z M288.0,-87.0L286.1,-82.1L281.3,-83.0L277.3,-86.3L279.0,-92.2L283.8,-95.8L286.7,-91.1L288.0,-87.0Z M1083.6,-94.6L1081.0,-84.9L1068.7,-85.3L1063.2,-82.3L1056.6,-90.6L1058.4,-99.9L1062.8,-102.5L1071.6,-101.8L1083.6,-94.6Z M271.7,-110.7L274.2,-104.1L274.3,-97.1L272.8,-87.2L267.3,-85.9L263.7,-88.0L263.8,-95.7L258.3,-94.6L258.1,-105.3L261.7,-104.8L266.7,-109.7L271.4,-108.8L271.7,-110.7Z M239.3,-103.4L240.6,-98.4L243.6,-100.7L247.1,-100.1L247.7,-93.5L245.6,-87.3L234.3,-85.3L225.9,-79.9L220.9,-79.6L220.4,-83.7L227.4,-89.3L212.3,-87.8L207.6,-90.1L212.2,-103.3L215.3,-107.3L224.7,-102.5L230.6,-94.4L236.4,-93.4L231.7,-106.6L234.7,-111.8L238.2,-110.1L239.3,-103.4Z M791.8,-38.6L789.8,-37.7L778.9,-39.0L778.0,-43.6L772.0,-46.3L771.5,-52.1L774.9,-54.4L774.8,-60.5L781.4,-70.3L778.4,-71.8L786.3,-82.5L785.4,-88.3L792.9,-95.2L803.9,-104.1L815.0,-106.7L820.7,-112.0L827.2,-114.0L829.5,-108.2L827.3,-103.8L815.5,-97.0L805.3,-90.6L794.9,-78.5L790.0,-66.9L784.7,-56.0L785.4,-47.0L791.8,-38.6Z M284.4,-116.3L288.1,-111.6L294.6,-111.6L297.5,-106.9L296.8,-101.6L300.6,-98.5L302.7,-95.3L307.2,-94.7L312.1,-93.6L317.4,-96.5L324.2,-97.6L329.6,-96.7L333.1,-91.6L333.9,-86.3L331.8,-82.9L326.8,-80.2L322.6,-81.7L313.0,-79.8L306.2,-79.6L300.8,-81.1L291.9,-85.2L290.8,-92.3L290.4,-98.9L287.0,-105.0L280.1,-106.7L276.3,-111.2L277.5,-117.3L284.4,-116.3Z M212.7,-124.6L212.2,-113.0L209.6,-108.0L206.5,-107.3L200.3,-101.3L195.0,-99.2L190.5,-102.2L190.5,-102.2L196.1,-112.8L203.0,-122.6L208.1,-122.4L212.7,-124.6Z M956.6,-114.5L957.5,-107.3L960.5,-110.8L970.3,-110.6L977.8,-103.6L980.4,-98.5L979.6,-91.5L975.9,-87.7L967.2,-80.6L964.7,-77.0L968.8,-75.2L973.7,-72.2L976.7,-74.5L978.4,-66.9L979.9,-69.9L985.2,-71.8L995.9,-69.8L996.7,-64.4L1010.7,-62.7L1010.9,-71.6L1017.9,-69.5L1023.3,-69.6L1028.6,-63.5L1030.2,-56.3L1028.2,-51.7L1032.4,-43.4L1037.6,-39.3L1040.8,-50.2L1046.2,-45.4L1051.9,-48.3L1058.3,-45.0L1060.8,-48.0L1066.2,-46.5L1063.8,-56.5L1068.2,-61.3L1098.3,-54.1L1101.2,-47.7L1109.9,-39.8L1123.4,-41.8L1130.0,-40.1L1132.8,-35.9L1132.4,-28.7L1136.5,-26.0L1140.9,-28.0L1146.8,-28.2L1153.1,-26.4L1159.5,-27.4L1165.3,-19.1L1169.4,-22.0L1166.7,-28.1L1168.2,-32.4L1178.8,-29.7L1185.7,-30.2L1195.3,-25.7L1200.0,-21.6L1200.0,12.4L1200.0,12.5L1195.7,15.9L1191.4,15.4L1194.4,19.5L1196.4,25.6L1197.9,27.6L1198.3,30.6L1197.4,32.6L1191.2,31.0L1181.9,36.4L1178.9,37.2L1173.8,42.1L1169.0,46.2L1167.8,49.3L1163.0,44.6L1154.3,49.9L1152.8,47.4L1149.6,50.3L1145.1,49.4L1144.1,53.7L1140.1,59.9L1140.2,62.4L1144.0,63.8L1143.5,72.7L1140.4,72.9L1139.0,77.9L1140.4,80.4L1134.6,83.3L1133.4,89.8L1128.4,91.1L1127.4,96.7L1122.6,101.7L1121.4,98.0L1120.0,90.0L1118.1,77.3L1119.7,69.0L1122.5,65.4L1122.7,62.5L1127.9,61.1L1133.8,53.0L1139.6,46.2L1145.6,40.7L1148.2,30.8L1144.2,31.4L1142.2,37.2L1133.7,44.8L1131.0,36.3L1122.4,38.7L1114.1,50.1L1116.8,54.1L1109.4,55.8L1104.2,56.5L1104.5,51.8L1099.3,50.8L1095.1,54.0L1085.0,52.9L1074.0,54.8L1063.2,67.1L1050.4,81.1L1055.7,81.8L1057.3,85.4L1060.5,86.7L1062.7,83.8L1066.3,84.2L1071.2,90.4L1071.3,95.1L1068.7,100.5L1068.4,106.7L1066.9,114.9L1061.8,122.1L1060.7,125.4L1056.2,131.0L1051.7,136.4L1049.6,139.1L1045.1,141.8L1043.0,141.9L1040.9,139.6L1036.5,143.0L1035.9,144.5L1034.7,144.2L1033.2,145.7L1032.2,147.2L1032.4,150.4L1030.6,151.4L1030.0,152.2L1028.8,153.5L1026.6,154.2L1025.1,155.4L1025.0,157.2L1024.6,157.7L1025.9,158.4L1027.8,160.3L1030.7,165.3L1031.5,168.0L1031.6,172.7L1030.3,175.0L1027.3,175.8L1024.6,177.4L1021.6,177.8L1021.2,175.6L1021.9,172.5L1020.4,168.2L1022.9,167.5L1020.6,163.9L1019.0,163.1L1018.6,163.9L1017.6,164.3L1017.5,163.5L1016.6,163.1L1015.7,162.4L1016.6,160.5L1017.4,160.0L1017.1,159.3L1018.0,156.9L1017.7,156.2L1015.8,155.8L1014.2,154.6L1009.6,155.9L1007.1,157.9L1003.5,159.1L1005.3,157.1L1004.6,155.4L1007.2,152.5L1005.5,150.1L1002.6,151.7L998.8,154.7L996.7,157.5L993.5,157.7L991.8,159.7L993.5,162.6L996.3,163.3L996.4,165.2L999.0,166.4L1002.7,163.4L1005.7,165.1L1007.9,165.2L1008.4,167.4L1003.7,168.5L1002.1,170.8L998.9,172.8L997.2,175.7L1000.8,177.9L1002.1,181.9L1004.1,185.5L1006.4,188.5L1006.3,191.4L1004.2,192.5L1005.0,194.5L1007.0,195.7L1006.5,198.9L1005.6,201.9L1003.8,202.2L1001.3,206.3L998.6,211.2L995.5,215.6L990.9,218.9L986.3,222.0L982.5,222.4L980.5,224.0L979.4,222.8L977.5,224.6L972.8,226.4L969.3,227.0L968.1,230.7L966.3,230.9L965.4,228.3L966.2,227.0L961.7,225.8L960.2,226.4L955.7,229.5L952.9,232.8L952.2,235.3L954.8,239.0L957.9,243.5L960.9,245.7L962.9,248.5L964.5,254.8L964.0,260.8L961.2,263.1L957.4,265.3L954.7,268.1L950.5,271.2L949.3,269.1L950.3,266.8L947.8,264.8L945.0,264.4L943.6,262.6L942.0,259.1L939.0,257.5L936.1,257.6L936.6,254.9L933.7,254.9L933.4,258.7L931.6,263.6L930.5,266.6L930.7,269.1L932.9,269.2L934.3,272.3L934.9,275.2L936.7,277.1L938.7,277.5L940.5,279.2L941.2,279.5L943.2,281.6L944.6,283.8L944.8,286.0L944.4,287.6L944.8,288.7L945.0,290.7L946.2,291.6L947.5,294.6L947.4,295.7L945.1,295.9L941.9,293.4L938.0,290.8L937.6,289.1L935.7,286.9L935.2,284.1L934.0,282.3L934.4,279.8L933.6,278.4L932.3,277.1L931.7,275.5L930.0,273.6L928.3,272.0L927.8,273.9L927.2,272.1L927.5,270.0L928.5,266.7L928.2,264.2L929.2,261.6L928.1,259.6L928.4,255.9L927.0,254.1L925.9,250.0L925.3,245.6L923.9,242.7L921.7,244.5L917.9,246.9L916.0,246.6L914.0,245.8L915.1,241.5L914.4,238.2L911.8,234.2L912.2,232.9L910.3,232.4L907.9,229.6L906.9,227.7L906.8,225.9L906.1,224.1L904.7,222.0L901.7,221.9L902.0,223.4L900.9,225.4L899.5,224.7L899.0,225.3L898.1,224.9L896.8,224.6L896.3,225.9L894.0,225.9L889.9,226.6L890.1,229.3L888.3,231.4L883.5,233.8L879.8,237.9L877.3,240.1L874.0,242.4L874.0,244.0L872.3,244.9L869.3,246.1L867.7,246.3L866.8,248.9L867.4,253.4L867.6,256.3L866.2,259.5L866.2,265.3L864.5,265.5L863.0,268.0L864.0,269.1L860.9,270.1L859.8,272.4L858.5,273.4L855.3,270.2L853.8,265.5L852.5,262.1L851.3,260.4L849.5,257.2L848.7,252.9L848.1,250.7L845.1,246.0L843.7,239.2L842.7,234.7L842.7,230.4L842.1,227.1L837.3,229.2L834.9,228.8L830.5,224.5L832.1,223.2L831.2,221.8L827.3,218.7L824.8,217.8L823.8,215.1L821.2,212.3L815.1,213.0L809.7,213.1L805.0,213.6L798.7,212.5L795.1,211.6L791.3,211.2L789.9,206.6L788.3,205.9L785.7,206.6L782.4,208.4L778.3,207.2L774.9,204.3L771.7,203.2L769.5,199.6L767.1,194.5L765.3,195.1L763.1,193.9L761.9,195.4L759.9,195.2L760.6,196.9L760.3,197.8L761.4,200.6L762.7,203.9L764.3,204.7L764.9,206.1L767.2,207.6L767.4,209.2L767.0,210.4L767.5,211.6L768.4,212.7L768.9,213.9L769.4,214.8L769.1,212.1L770.0,210.2L771.0,209.8L772.0,210.9L772.0,213.1L771.3,215.3L771.9,216.7L772.5,216.5L772.6,217.5L775.3,216.9L778.0,217.0L780.0,217.1L782.3,214.6L784.8,212.3L786.9,210.0L787.9,208.7L788.3,209.0L788.0,210.6L787.5,211.3L788.0,214.2L789.5,216.7L791.3,218.0L793.8,218.5L795.8,219.1L797.3,221.2L798.2,222.4L799.4,222.9L799.4,223.7L798.1,225.8L797.6,226.8L796.2,228.0L795.0,230.4L793.4,230.2L792.8,231.1L792.2,232.9L792.6,235.2L792.3,235.7L790.8,235.7L788.7,237.0L788.4,238.7L787.6,239.4L785.5,239.4L784.2,240.3L784.2,241.7L782.6,242.7L780.8,242.3L778.6,243.5L777.0,243.7L774.6,244.6L774.0,246.2L773.9,247.4L770.6,248.8L765.2,250.4L762.3,252.9L760.8,253.0L759.8,252.8L757.8,254.3L755.7,254.9L752.9,255.1L752.1,255.3L751.4,256.2L750.5,256.4L750.0,257.3L748.3,257.2L747.3,257.7L744.9,257.5L744.1,255.5L744.2,253.7L743.6,252.6L743.0,250.1L742.0,248.7L742.7,248.5L742.3,246.9L742.7,246.3L742.6,244.8L742.2,243.3L741.2,242.2L740.9,240.8L739.2,239.6L737.4,236.6L736.5,233.8L734.2,231.3L732.7,230.7L730.5,227.3L730.1,224.8L730.2,222.7L728.3,218.7L726.7,217.3L724.9,216.5L723.8,214.4L724.0,213.6L723.1,211.7L722.1,210.8L720.8,208.1L718.8,205.1L717.1,202.5L715.4,202.5L716.0,200.4L716.1,199.1L716.5,197.6L716.4,197.0L715.5,198.5L714.8,201.4L713.8,203.4L713.1,204.0L712.0,202.8L710.5,201.1L708.1,195.7L707.7,196.0L709.1,200.0L711.2,203.8L713.7,209.7L714.9,211.7L716.0,213.8L719.0,217.8L718.3,218.5L718.4,220.8L722.3,224.1L722.9,224.8L724.0,228.3L723.2,229.0L723.7,232.6L724.9,236.8L726.2,237.7L728.0,239.0L730.0,243.0L730.9,246.2L732.7,247.9L737.3,251.2L739.1,253.1L740.9,255.1L742.0,256.3L743.6,257.3L744.4,258.4L744.3,259.8L742.4,260.6L743.8,261.5L744.9,262.2L745.6,263.6L747.1,265.0L748.7,265.0L751.9,264.1L755.5,263.7L758.4,262.7L760.1,262.5L761.3,261.8L763.2,261.7L764.2,261.6L765.8,261.1L767.5,260.8L769.1,259.6L770.4,259.6L770.4,260.6L770.1,262.5L770.2,264.3L769.4,265.5L768.5,269.2L766.9,273.0L764.8,277.3L762.0,282.2L759.1,285.9L755.2,290.5L751.9,293.2L746.9,296.5L743.8,299.0L740.1,303.1L739.4,304.8L738.6,305.6L736.3,306.9L735.5,308.3L734.2,308.6L733.7,310.9L732.7,312.3L732.0,314.5L730.7,315.6L729.1,319.7L729.3,321.6L731.5,322.9L731.6,323.7L730.6,325.8L730.8,326.8L730.6,328.4L731.8,330.5L733.2,333.8L734.4,334.6L734.9,336.1L734.8,339.5L735.2,342.5L735.3,347.8L735.9,349.5L734.9,352.0L733.6,354.4L731.5,356.5L728.5,357.9L724.7,359.6L720.9,363.3L719.7,364.0L717.3,366.5L716.0,367.3L715.7,369.8L717.3,372.5L717.9,374.6L718.0,375.7L718.5,375.5L718.4,379.1L717.9,380.8L718.7,381.4L718.2,382.9L716.8,384.2L714.1,385.4L710.0,387.4L708.6,388.8L708.9,390.4L709.7,390.6L709.4,392.6L708.6,395.3L708.2,398.4L707.3,400.1L705.1,402.1L704.4,402.6L703.0,404.6L702.1,406.5L700.2,409.3L696.4,413.4L694.1,415.7L691.5,417.5L688.1,419.1L686.4,419.3L685.9,420.4L683.9,419.8L682.3,420.6L678.6,419.8L676.6,420.3L675.2,420.1L671.8,421.7L669.0,422.3L666.9,423.8L665.4,423.9L664.0,422.5L662.9,422.4L661.4,420.6L661.3,421.2L660.8,420.1L660.8,417.8L659.8,415.1L660.8,414.4L660.7,411.4L658.6,407.7L656.9,404.4L656.9,404.4L654.5,399.5L652.0,396.6L650.7,393.9L650.0,390.2L649.1,387.6L648.0,381.9L648.0,377.6L647.5,375.6L646.2,374.1L644.5,371.2L642.8,366.9L642.0,364.7L639.3,361.3L639.1,358.6L638.8,356.4L639.3,353.3L640.4,350.2L640.6,348.7L641.7,345.6L642.5,344.2L644.4,341.9L645.4,340.4L645.8,337.9L645.6,336.0L644.6,334.8L643.7,332.7L642.9,330.7L643.1,330.0L644.1,328.6L643.1,325.4L642.4,323.1L640.8,321.0L641.1,320.4L640.6,319.3L639.7,316.8L637.0,313.3L633.6,309.9L631.4,307.1L629.3,303.7L629.4,302.6L630.2,301.5L631.0,299.1L631.6,296.6L631.0,296.1L632.2,292.4L632.7,289.8L631.3,287.5L629.8,287.0L629.1,285.5L628.3,285.0L628.3,284.1L624.9,285.3L623.6,285.1L622.3,285.9L619.7,285.8L617.9,283.7L616.8,281.3L614.4,279.1L611.9,279.1L609.0,279.1L606.2,279.5L603.5,280.2L598.3,282.2L596.5,283.3L593.5,284.3L590.5,283.3L589.0,283.4L586.6,282.7L584.5,282.7L580.6,283.3L578.2,284.3L574.9,285.5L574.3,285.4L573.4,285.5L570.0,283.9L567.0,281.3L564.1,279.5L561.9,277.3L561.0,277.1L558.6,275.7L556.8,273.9L556.3,272.7L555.8,270.2L554.4,268.2L553.1,266.9L552.2,266.4L551.4,265.8L551.0,264.3L550.5,263.5L549.6,263.0L547.8,261.5L546.4,261.3L545.6,260.4L545.6,259.8L544.6,259.1L544.4,258.4L543.9,255.8L544.3,254.3L542.9,251.6L541.3,250.4L542.7,249.7L544.3,247.3L545.1,245.5L544.8,243.6L545.8,241.9L546.2,238.6L545.8,235.1L545.4,233.4L545.7,231.6L544.9,229.9L543.1,228.4L543.3,226.9L543.4,225.2L544.7,224.2L545.8,222.3L545.6,221.1L546.7,218.6L548.6,216.2L549.7,215.6L550.6,213.5L550.7,211.5L551.9,209.3L554.1,207.9L556.2,204.1L557.9,202.6L561.0,202.2L563.7,199.6L565.3,198.5L568.1,195.3L567.3,190.5L568.6,187.2L569.0,185.1L571.1,182.4L574.5,180.6L577.0,178.9L579.2,174.7L580.2,172.2L582.7,172.2L584.7,174.0L587.9,173.7L591.3,174.6L592.8,174.6L596.0,172.4L599.6,171.7L601.7,170.0L604.9,168.7L610.5,168.0L616.1,167.6L617.7,168.3L620.9,166.6L624.4,166.6L625.8,167.6L628.1,167.3L631.7,165.6L634.0,166.1L633.9,168.2L636.8,166.7L637.0,167.5L635.3,169.5L635.3,171.4L636.5,172.5L636.0,176.0L633.8,178.0L634.5,180.2L636.2,180.3L637.0,182.2L638.3,182.8L642.2,184.2L643.6,183.8L646.4,184.5L650.8,186.3L652.4,189.8L655.4,190.5L660.1,192.1L663.6,194.1L665.2,193.1L666.8,191.3L666.1,188.3L667.1,186.4L669.5,184.5L671.8,184.0L676.3,184.8L677.5,186.6L678.7,186.6L679.8,187.2L683.1,187.7L683.9,189.0L688.3,188.9L691.5,190.0L694.8,191.1L696.4,191.7L698.9,190.5L700.3,189.4L703.3,189.1L705.6,189.5L706.5,191.5L707.3,190.2L710.0,191.1L712.6,191.3L714.2,190.4L715.2,189.1L715.0,188.9L715.8,187.0L716.5,184.0L717.0,183.0L717.1,183.0L718.3,179.7L719.9,176.9L720.0,176.8L719.7,173.6L720.5,172.0L719.3,170.1L720.5,168.5L718.5,168.9L715.7,167.9L713.4,170.3L708.4,170.8L705.7,168.6L702.1,168.4L701.3,170.1L699.0,170.6L695.8,168.4L692.1,168.5L690.2,164.3L687.7,162.0L689.3,158.7L687.2,156.6L690.9,152.5L696.1,152.3L697.5,148.9L703.8,149.5L707.8,146.6L711.7,145.4L717.2,145.3L723.0,148.4L727.8,150.1L731.7,149.5L734.6,149.9L738.5,147.5L739.0,145.6L738.2,142.6L736.3,140.9L734.4,140.4L733.2,138.9L728.9,135.0L725.1,133.3L722.3,130.5L724.7,129.8L727.4,125.8L725.6,123.8L730.5,121.9L730.4,120.8L727.4,121.6L724.8,122.0L722.5,123.5L719.4,123.8L716.5,125.6L716.7,128.6L718.4,129.7L721.8,129.4L721.1,131.1L717.5,132.0L712.9,134.7L711.1,133.7L711.8,131.5L708.2,130.1L708.8,129.2L712.0,127.6L711.0,126.5L705.8,125.3L705.6,123.5L702.5,124.1L701.3,126.8L698.7,130.3L698.8,131.5L697.1,132.5L696.1,132.1L695.2,137.7L693.5,139.6L692.2,142.9L693.3,145.4L693.7,147.1L696.6,148.6L696.0,149.7L692.1,149.9L690.6,151.3L687.9,153.6L686.8,151.6L686.9,150.7L684.8,150.6L683.1,150.1L679.0,151.3L681.4,153.8L679.7,154.5L677.8,154.5L676.0,152.2L675.4,153.2L676.2,155.8L677.8,157.8L676.6,158.7L678.4,160.7L680.1,161.9L680.1,164.3L677.1,163.2L678.0,165.4L675.9,165.8L677.2,169.5L675.0,169.5L672.2,167.7L671.0,164.4L670.4,161.6L669.1,159.6L667.4,157.2L667.2,155.9L666.6,155.6L666.5,154.7L664.7,153.2L664.4,151.1L664.7,148.1L665.1,146.7L664.6,146.0L663.9,145.7L662.9,144.2L661.5,143.3L658.4,141.6L656.4,140.0L653.4,138.6L650.6,135.2L651.3,134.9L649.7,132.9L649.7,131.3L647.5,130.6L646.5,132.6L645.5,131.0L645.6,129.4L645.7,129.3L646.5,128.9L643.8,128.2L641.1,129.9L641.3,132.2L640.9,133.5L642.0,135.9L645.1,138.2L646.8,142.0L650.5,145.7L653.1,145.6L653.9,146.6L653.0,147.5L656.0,149.1L658.4,150.5L661.3,152.7L661.6,153.6L661.0,155.1L659.1,153.1L656.2,152.4L654.8,155.2L657.2,156.8L656.8,159.0L655.5,159.3L653.7,162.9L652.3,163.3L652.3,162.0L653.0,159.7L653.7,158.8L652.4,156.3L651.4,154.1L650.0,153.5L649.0,151.7L646.9,150.9L645.4,149.1L643.0,148.8L640.4,146.8L637.3,143.9L635.0,141.3L634.0,136.7L632.3,136.2L629.6,134.6L628.1,135.3L626.2,137.4L624.8,137.8L621.8,140.4L615.2,139.1L610.3,140.6L610.0,143.3L610.1,145.9L607.0,148.9L602.7,149.8L602.4,151.3L600.4,153.8L599.1,157.3L600.4,159.7L598.4,161.6L597.7,164.4L595.2,165.2L592.8,168.4L588.6,168.5L585.4,168.4L583.3,169.9L582.1,171.4L580.4,171.1L579.2,169.7L578.3,167.3L575.2,166.7L573.8,167.8L572.1,167.2L570.3,167.6L570.8,164.3L570.5,161.7L569.0,161.4L568.2,159.7L568.5,156.9L569.8,155.4L570.1,153.6L570.8,151.0L570.7,149.1L570.0,147.5L569.9,146.0L570.1,142.8L568.7,140.8L573.4,137.5L577.5,138.3L582.0,138.3L585.5,139.1L588.3,138.9L593.7,139.0L595.4,136.2L596.0,126.8L592.6,121.8L590.1,119.3L585.0,117.4L584.7,113.7L589.0,112.6L594.6,113.9L593.6,108.1L596.7,110.3L604.5,106.3L605.5,102.0L608.4,100.9L611.1,99.9L612.8,98.4L615.7,90.4L620.2,88.1L623.0,88.2L623.7,87.0L626.5,86.7L627.1,88.0L629.3,85.2L628.6,83.0L628.4,79.8L627.1,76.5L627.0,70.4L627.5,68.8L628.5,67.0L631.4,66.6L632.6,64.9L635.3,63.1L635.2,66.3L634.2,68.3L634.6,70.0L636.4,70.9L635.6,73.2L634.6,72.5L632.2,76.8L633.1,79.7L633.1,81.9L636.5,83.2L636.5,85.2L639.9,84.2L641.7,82.6L645.5,84.9L647.1,86.7L649.3,85.0L654.5,82.4L658.7,80.4L662.1,81.4L662.3,82.8L665.5,82.9L666.3,80.3L670.9,78.4L670.2,73.5L670.3,69.0L671.9,65.1L675.1,63.0L677.7,67.6L680.4,67.5L681.0,62.7L681.4,59.0L680.2,59.8L678.1,57.5L677.8,53.8L682.0,52.0L686.2,51.1L689.8,52.1L693.3,51.9L697.1,48.3L693.6,45.1L687.5,45.6L681.7,48.1L676.2,49.5L674.3,45.9L671.1,43.6L671.8,36.8L670.2,30.4L671.8,26.1L674.8,21.4L682.4,13.1L684.7,11.4L684.3,8.0L679.7,4.2L673.9,6.5L670.7,12.1L671.2,16.9L665.9,23.0L659.5,29.3L657.1,39.4L659.4,44.2L662.6,47.9L659.6,55.3L656.1,56.9L654.8,67.4L652.9,73.0L648.9,72.5L647.0,77.2L643.1,77.4L642.1,71.8L639.3,64.9L636.8,56.0L634.5,52.0L627.9,59.4L623.5,60.9L618.9,57.7L617.7,50.7L616.6,34.9L619.7,30.3L628.5,24.1L635.1,16.3L641.2,5.2L649.2,-11.1L654.8,-17.9L663.9,-29.7L671.3,-33.9L676.7,-33.4L681.8,-41.7L687.9,-41.3L693.9,-43.3L704.3,-35.9L700.0,-33.3L703.7,-27.2L707.1,-30.5L712.6,-24.7L721.7,-22.5L734.3,-12.2L736.9,-8.0L737.1,-2.3L733.4,2.1L727.9,4.3L713.1,-2.1L710.6,-1.0L716.0,5.1L716.5,16.9L720.8,19.2L723.4,21.2L723.8,17.5L721.7,14.0L723.9,11.2L732.0,16.0L734.8,14.1L732.5,8.3L740.3,0.3L743.4,0.8L746.5,3.7L748.4,-2.0L745.7,-7.1L747.3,-12.4L744.8,-18.0L754.2,-15.1L756.1,-10.1L751.9,-9.0L751.9,-4.2L754.5,-1.3L759.6,-3.1L760.5,-8.6L767.4,-12.8L779.1,-20.6L781.6,-20.1L778.3,-14.6L782.4,-13.7L784.8,-16.8L791.1,-17.0L796.0,-20.8L799.8,-15.3L803.6,-21.4L800.1,-26.8L801.8,-30.0L811.7,-27.1L816.3,-24.1L828.4,-13.6L830.6,-18.4L827.2,-23.3L827.1,-25.3L823.1,-26.2L824.2,-30.7L822.4,-38.5L822.3,-41.7L828.5,-51.2L830.7,-61.2L833.1,-63.5L842.0,-60.5L842.7,-54.3L839.5,-45.7L841.6,-42.4L842.6,-35.3L841.9,-22.1L845.6,-16.5L844.1,-10.5L837.6,1.6L841.4,2.8L842.7,-0.2L846.4,-2.3L847.3,-6.6L850.2,-10.7L848.2,-15.8L849.8,-21.8L846.1,-22.6L845.3,-27.8L848.0,-37.7L843.7,-46.1L849.6,-53.2L848.9,-61.1L850.5,-61.4L852.3,-55.2L851.0,-44.9L854.5,-43.0L853.0,-50.6L858.6,-54.8L865.5,-55.4L871.7,-49.3L868.7,-58.3L868.4,-70.6L874.2,-73.0L882.2,-72.4L889.4,-74.0L886.7,-80.4L890.6,-88.7L894.4,-89.1L900.9,-95.7L909.7,-97.5L910.8,-101.2L919.5,-102.5L922.3,-99.4L929.7,-106.8L935.9,-106.6L936.8,-112.8L940.0,-119.2L947.8,-125.5L953.6,-120.5L949.0,-116.7L956.6,-114.5Z M763.7,148.7L765.4,151.8L766.9,152.0L768.0,153.2L765.2,153.5L764.7,156.9L764.1,158.4L762.9,159.4L762.9,161.5L764.0,164.6L767.2,165.5L769.5,167.6L774.2,168.3L779.4,167.2L779.7,166.2L779.1,163.3L779.6,158.8L777.0,157.4L777.9,154.4L775.6,154.1L776.4,150.5L779.5,151.5L782.5,150.1L780.0,147.5L779.1,144.9L776.4,146.1L776.0,149.3L775.0,146.4L774.8,145.3L775.6,143.5L775.0,141.9L771.1,140.3L769.6,136.2L767.8,135.0L767.7,133.5L770.9,133.9L771.1,130.5L773.9,129.7L776.8,130.4L777.4,125.8L776.8,122.8L773.5,123.0L770.6,121.8L766.8,124.0L763.7,125.0L762.2,127.8L758.9,128.6L755.6,133.5L758.6,137.9L758.3,141.0L761.9,146.3L763.7,148.7Z M287.2,-122.7L285.7,-122.3L279.4,-123.2L278.5,-127.6L285.3,-127.4L287.6,-124.5L287.2,-122.7Z M232.7,-125.5L226.5,-121.0L221.6,-126.0L224.3,-131.1L229.1,-132.7L233.8,-130.2L232.7,-125.5Z M682.4,-127.9L675.0,-121.6L669.1,-125.1L671.4,-129.2L669.4,-134.4L676.3,-137.7L677.6,-131.5L682.4,-127.9Z M234.5,-140.2L230.4,-136.9L224.9,-136.9L224.9,-139.3L228.3,-144.4L230.1,-143.6L234.5,-140.2Z M280.6,-131.2L275.6,-127.9L272.9,-131.6L271.5,-137.7L271.2,-144.8L275.5,-144.1L277.5,-142.9L281.5,-137.1L280.6,-131.2Z M266.5,-135.5L267.8,-128.8L262.3,-130.6L256.8,-135.8L249.4,-136.4L252.6,-141.4L248.6,-145.6L248.4,-152.3L254.9,-149.9L263.9,-143.5L266.5,-135.5Z M950.3,-135.2L931.5,-129.0L937.5,-151.1L940.3,-153.1L942.8,-152.0L951.2,-142.0L950.3,-135.2Z M660.8,-159.6L671.8,-146.2L663.4,-139.5L661.6,-127.5L658.6,-124.5L657.1,-112.0L653.0,-111.5L645.9,-120.6L648.9,-126.1L643.9,-130.7L637.4,-144.7L634.8,-158.7L643.9,-165.5L645.7,-158.9L650.5,-159.1L651.7,-165.6L656.6,-166.3L660.8,-159.6Z M684.8,-173.3L691.4,-166.4L686.4,-156.2L676.7,-154.1L666.9,-157.1L666.3,-162.3L661.5,-162.6L657.9,-171.5L668.2,-177.1L673.0,-172.3L676.4,-178.3L684.8,-173.3Z M770.5,-176.1L766.0,-173.4L763.0,-171.9L762.5,-168.7L758.6,-165.5L755.0,-170.1L756.9,-176.3L749.5,-177.0L756.0,-180.7L761.1,-181.0L761.7,-175.4L763.7,-180.3L766.8,-183.8L771.7,-179.2L770.5,-176.1Z M933.1,-144.9L925.9,-142.8L916.6,-147.8L911.0,-154.6L908.5,-168.1L903.9,-172.0L912.6,-186.0L919.8,-190.9L926.3,-180.2L934.0,-161.1L933.1,-144.9Z M309.9,-158.9L314.0,-153.0L309.4,-147.7L303.2,-134.9L297.3,-133.7L290.4,-135.8L286.8,-142.7L286.9,-149.0L289.5,-153.7L283.4,-153.6L279.7,-159.7L277.6,-168.3L279.9,-177.2L282.3,-183.5L285.7,-185.0L284.2,-190.0L292.0,-191.1L296.2,-179.7L301.8,-175.3L307.3,-171.5L309.9,-158.9Z M371.7,-236.6L380.6,-234.4L387.7,-230.9L393.8,-223.8L393.7,-216.9L385.6,-206.4L377.5,-201.6L374.5,-196.5L381.7,-196.6L373.9,-183.4L368.4,-177.5L362.7,-161.5L355.9,-158.4L353.7,-154.6L343.6,-152.7L348.2,-150.5L345.9,-147.3L348.7,-138.9L345.5,-133.2L340.4,-128.7L338.8,-122.5L334.1,-118.0L334.6,-114.6L340.3,-115.2L340.4,-111.6L331.5,-103.0L322.8,-106.9L313.0,-104.7L308.0,-106.4L301.7,-107.2L301.3,-114.1L307.4,-117.5L305.8,-128.7L307.8,-129.8L316.7,-123.0L312.2,-133.2L306.8,-136.3L309.5,-142.8L315.4,-146.9L316.4,-153.1L311.6,-160.3L310.2,-170.2L319.3,-169.3L322.0,-167.2L327.2,-174.4L319.7,-176.8L308.0,-175.5L302.1,-182.5L299.3,-191.1L295.4,-197.7L294.7,-205.6L299.7,-210.1L303.6,-210.9L310.1,-214.9L315.0,-224.4L319.1,-223.0L322.7,-215.9L325.3,-229.9L329.7,-234.2L335.6,-237.3L345.8,-238.4L347.6,-235.4L357.2,-240.1L364.4,-238.4L371.7,-236.6Z M509.7,-248.4L530.5,-226.3L524.4,-216.4L511.6,-215.3L493.7,-212.9L495.3,-208.6L507.1,-211.3L517.2,-203.0L523.7,-210.3L526.4,-201.8L522.8,-188.8L531.3,-197.0L547.4,-206.0L557.4,-201.5L559.3,-191.8L545.7,-176.8L543.8,-172.1L533.2,-168.7L540.9,-167.8L537.0,-154.1L534.3,-142.7L534.4,-124.5L538.4,-114.6L533.2,-114.0L527.7,-109.4L533.9,-101.9L534.7,-90.5L531.1,-89.3L535.4,-78.4L528.0,-77.5L531.9,-72.6L530.8,-68.4L526.1,-66.6L521.4,-66.6L525.6,-58.8L525.7,-53.9L519.1,-58.5L517.4,-55.5L521.9,-52.8L526.2,-46.3L527.5,-38.0L521.5,-36.1L519.0,-40.0L514.9,-45.9L516.0,-38.9L512.1,-33.7L520.9,-33.2L525.5,-32.7L516.6,-24.3L507.5,-17.1L497.8,-13.9L494.1,-13.9L490.6,-10.5L486.0,-1.4L478.8,4.4L476.5,4.8L472.1,6.8L467.3,8.6L464.4,13.5L464.4,19.0L462.7,23.9L457.3,29.8L458.6,35.4L457.1,41.2L455.4,47.8L450.7,48.2L445.8,42.7L439.1,42.7L435.9,38.9L433.7,32.0L427.9,22.9L426.2,17.9L425.7,10.9L421.1,3.4L422.3,-2.7L420.1,-5.7L423.4,-16.0L428.4,-19.4L429.7,-23.3L430.4,-30.8L426.6,-27.3L424.8,-25.9L421.8,-24.6L417.7,-27.7L417.5,-34.3L418.8,-39.6L421.9,-39.8L428.7,-37.1L423.0,-43.5L420.0,-47.1L416.7,-45.6L413.9,-48.2L417.6,-58.4L415.6,-62.6L412.9,-70.6L408.9,-83.5L404.7,-88.5L404.7,-94.0L395.8,-102.0L388.7,-103.0L379.8,-102.4L371.7,-101.4L367.8,-105.9L362.0,-115.0L370.7,-119.7L377.5,-120.5L363.2,-124.5L355.7,-131.0L356.1,-137.3L368.8,-145.5L381.0,-154.0L382.3,-160.7L373.3,-167.6L376.2,-175.5L387.7,-190.1L392.6,-192.5L391.2,-202.7L399.1,-208.9L409.3,-212.7L419.6,-212.9L423.2,-205.4L432.0,-218.9L440.0,-209.6L444.7,-207.7L451.6,-200.1L443.7,-212.9L444.1,-223.7L455.3,-239.9L467.0,-238.6L471.3,-249.3L483.0,-252.2L509.7,-248.4Z" />
</svg>